<svg preserveAspectRatio="none" width="100%" height="100%" overflow="visible" style="display: block;" viewBox="0 0 17.4016 10.4296" fill="none" xmlns="http://www.w3.org/2000/svg">
<g id="Group 6632">
<path id="Path 3384" d="M14.2984 7.29229C14.9178 7.21709 16.2838 7.05432 16.5248 7.3675C16.7657 7.68067 16.2526 8.96849 16.0211 9.54437C15.9518 9.71852 16.1022 9.78779 16.2586 9.6547C17.2773 8.79632 17.5449 7.00386 17.3351 6.74263C17.1254 6.48141 15.3384 6.26718 14.2504 7.03255C14.0842 7.15327 14.1134 7.31555 14.2984 7.29229Z" fill="var(--fill-0, #F3982E)"/>
<path id="Path 3385" d="M8.6841 10.4294C11.1974 10.4376 13.6545 9.68604 15.7332 8.27326C16.0459 8.04122 15.7738 7.68748 15.4552 7.83244C13.3753 8.70881 11.1429 9.16611 8.88596 9.17815C5.86461 9.17767 2.89591 8.38714 0.274439 6.885C0.0602152 6.75736 -0.102061 6.97802 0.0765417 7.14029C2.43477 9.27235 5.50501 10.4455 8.6841 10.4294Z" fill="var(--fill-0, #F3982E)"/>
<path id="Path 3386" d="M4.90457 3.78844C4.90019 3.96265 4.9217 4.13656 4.9684 4.30445C5.01991 4.44801 5.08192 4.58757 5.15393 4.72202C5.17967 4.76188 5.19372 4.80816 5.19449 4.8556C5.19101 4.89118 5.17927 4.92544 5.1602 4.95568C5.14113 4.98591 5.11526 5.01128 5.08466 5.02975L4.72003 5.27316C4.67664 5.30458 4.6251 5.32279 4.57161 5.32561C4.50565 5.32111 4.44373 5.29218 4.39796 5.24447C4.31998 5.16047 4.25023 5.06918 4.18967 4.97186C4.1237 4.86038 4.06384 4.74626 4.01008 4.6295C3.80635 4.8839 3.54711 5.08831 3.2522 5.22706C2.95728 5.36581 2.63453 5.43523 2.30865 5.43C2.09758 5.4412 1.8864 5.41003 1.68757 5.33831C1.48873 5.2666 1.30627 5.15579 1.15095 5.01243C1.00676 4.86627 0.89428 4.69192 0.820558 4.50029C0.746836 4.30866 0.713454 4.10388 0.722501 3.89876C0.71389 3.67292 0.756609 3.44806 0.847445 3.24111C0.938281 3.03416 1.07487 2.8505 1.24693 2.70396C1.64862 2.38536 2.15289 2.22454 2.66487 2.25176C2.87017 2.25349 3.07513 2.26903 3.27835 2.29827C3.49257 2.32746 3.71224 2.37347 3.94378 2.42591V2.00192C3.97727 1.66892 3.87966 1.33598 3.67167 1.07377C3.40262 0.86797 3.06517 0.772593 2.72819 0.807108C2.51765 0.807054 2.30786 0.832302 2.10333 0.882309C1.89061 0.933344 1.68179 0.999478 1.47847 1.08021C1.41273 1.10964 1.34513 1.13476 1.27612 1.15541C1.24618 1.16523 1.21507 1.17105 1.1836 1.17272C1.10246 1.17272 1.0619 1.11484 1.0619 0.993132V0.708159C1.05572 0.638054 1.0698 0.567651 1.10246 0.505314C1.14595 0.452334 1.2014 0.410449 1.26425 0.383112C1.49637 0.26816 1.74111 0.18066 1.9935 0.122382C2.2884 0.0465671 2.59192 0.00947919 2.89641 0.0120537C3.44377 -0.0344893 3.98771 0.134109 4.4128 0.482061C4.58471 0.675263 4.71587 0.901172 4.79841 1.14626C4.88096 1.39134 4.9132 1.65057 4.8932 1.90841V3.78844H4.90457ZM2.55454 4.67007C2.75677 4.66755 2.95727 4.6323 3.14823 4.56568C3.36064 4.49198 3.55012 4.36407 3.69789 4.19462C3.7916 4.08786 3.85933 3.96086 3.89579 3.82356C3.93676 3.65832 3.95737 3.48868 3.95714 3.31843V3.07502C3.78168 3.03209 3.60395 2.99906 3.42479 2.97607C3.2443 2.953 3.06254 2.94126 2.88058 2.94094C2.575 2.91678 2.27043 2.99873 2.01824 3.17297C1.92162 3.25412 1.84531 3.35673 1.7954 3.47261C1.7455 3.58849 1.72337 3.71443 1.73079 3.84039C1.72206 3.95213 1.73658 4.06447 1.77346 4.17032C1.81033 4.27616 1.86874 4.37322 1.94501 4.45535C2.02591 4.53123 2.12168 4.5895 2.22626 4.62646C2.33084 4.66342 2.44195 4.67827 2.55256 4.67007H2.55454ZM7.20217 5.29642C7.12418 5.30452 7.04592 5.28394 6.98201 5.23853C6.92143 5.17578 6.87931 5.09755 6.8603 5.01243L5.50074 0.528567C5.47444 0.453512 5.457 0.375638 5.44879 0.296532C5.44591 0.277176 5.44753 0.257416 5.45354 0.23879C5.45954 0.220165 5.46977 0.203177 5.48341 0.189149C5.49706 0.175121 5.51376 0.164432 5.53221 0.157915C5.55066 0.151397 5.57037 0.149226 5.58979 0.151572H6.15677C6.23624 0.142156 6.31636 0.162804 6.38139 0.209457C6.43973 0.272957 6.47974 0.351101 6.49716 0.435555L7.46982 4.27576L8.37273 0.43605C8.38451 0.350966 8.42297 0.271809 8.48256 0.209951C8.55195 0.167292 8.63281 0.147077 8.7141 0.152066H9.17719C9.25879 0.143318 9.34084 0.163832 9.40873 0.209951C9.4692 0.271189 9.50781 0.350656 9.51856 0.43605L10.4328 4.32227L11.4342 0.43605C11.4525 0.351893 11.4924 0.273958 11.55 0.209951C11.6167 0.167458 11.6951 0.147034 11.7741 0.151572H12.3124C12.3321 0.148866 12.3521 0.150751 12.3709 0.15708C12.3897 0.163408 12.4068 0.174007 12.4209 0.188048C12.4349 0.202088 12.4455 0.219189 12.4518 0.238009C12.4582 0.25683 12.46 0.276861 12.4573 0.296532C12.4561 0.327795 12.4523 0.358903 12.446 0.389544C12.4369 0.438997 12.4233 0.487519 12.4054 0.534504L11.0107 5.01837C10.9932 5.10405 10.9509 5.18269 10.889 5.24447C10.8235 5.28648 10.7465 5.30674 10.6688 5.30235H10.1716C10.09 5.3111 10.008 5.29059 9.94008 5.24447C9.87967 5.18081 9.84119 5.09951 9.83025 5.01243L8.93278 1.27118L8.04224 5.0065C8.02876 5.09281 7.99062 5.17339 7.93241 5.23853C7.86413 5.28377 7.7824 5.3042 7.70087 5.29642H7.20217ZM14.6397 5.45325C14.3397 5.45349 14.0408 5.41845 13.7491 5.34886C13.5179 5.30172 13.2941 5.22367 13.0837 5.11683C13.0091 5.08163 12.9466 5.02517 12.9041 4.95455C12.8816 4.90338 12.8698 4.84816 12.8695 4.79227V4.49543C12.8695 4.37372 12.916 4.31583 13.0025 4.31583C13.0381 4.31595 13.0733 4.3218 13.1069 4.33315C13.1416 4.34502 13.1935 4.36778 13.2519 4.39104C13.4563 4.48109 13.6698 4.54909 13.8886 4.59388C14.1153 4.64007 14.346 4.66344 14.5773 4.66364C14.8714 4.68097 15.1644 4.61459 15.4223 4.47217C15.5167 4.41502 15.5942 4.33393 15.647 4.23713C15.6998 4.14033 15.7261 4.03127 15.7231 3.92103C15.7252 3.84635 15.7125 3.77201 15.6856 3.70229C15.6588 3.63257 15.6184 3.56887 15.5668 3.51484C15.3976 3.37076 15.1975 3.2675 14.982 3.21305L14.141 2.95182C13.7768 2.8577 13.4523 2.64968 13.2148 2.35813C13.0285 2.11721 12.9268 1.82161 12.9254 1.51707C12.9208 1.29274 12.9747 1.0711 13.0817 0.873898C13.185 0.687439 13.327 0.525306 13.4983 0.398449C13.6785 0.262531 13.8823 0.161057 14.0994 0.0991287C14.3363 0.0305703 14.582 -0.00276945 14.8286 0.000179844C14.9583 -0.000734323 15.0879 0.00703404 15.2165 0.0234328C15.3496 0.0407489 15.4713 0.0640019 15.5925 0.0872548C15.7137 0.110508 15.8181 0.14514 15.9225 0.179772C16.0069 0.206002 16.0883 0.24099 16.1654 0.284163C16.2336 0.318618 16.293 0.368201 16.3391 0.429123C16.3767 0.485629 16.3949 0.552824 16.3911 0.620589V0.894183C16.3911 1.01589 16.3445 1.07971 16.258 1.07971C16.1808 1.07092 16.106 1.04723 16.0378 1.00995C15.6881 0.855123 15.309 0.777983 14.9266 0.783855C14.6601 0.768082 14.3942 0.824123 14.1568 0.946131C14.0684 0.99892 13.9962 1.07505 13.9482 1.16617C13.9002 1.25728 13.8782 1.35986 13.8847 1.46264C13.8831 1.5396 13.8977 1.61603 13.9277 1.68695C13.9576 1.75787 14.0021 1.8217 14.0583 1.87427C14.2461 2.02377 14.4629 2.13246 14.6951 2.19338L15.5193 2.45263C15.8682 2.542 16.1813 2.73627 16.4163 3.00921C16.593 3.24263 16.6866 3.52837 16.6825 3.82109C16.6861 4.05388 16.6353 4.28429 16.534 4.49394C16.4314 4.69244 16.2873 4.86656 16.1115 5.00452C15.9203 5.15365 15.7018 5.26406 15.4684 5.32956C15.2003 5.41214 14.9211 5.45319 14.6406 5.45127L14.6397 5.45325Z" fill="var(--fill-0, #252F3E)"/>
</g>
</svg>
