<svg preserveAspectRatio="none" width="100%" height="100%" overflow="visible" style="display: block;" viewBox="0 0 15.7948 12.6949" fill="none" xmlns="http://www.w3.org/2000/svg">
<g id="Group 6631">
<path id="Path 4427" d="M10.5041 3.50406L11.8769 2.13121L11.9683 1.55292C11.3596 1.01435 10.6507 0.601025 9.88221 0.336587C9.11368 0.0721485 8.30057 -0.0382223 7.48936 0.0117846C6.67814 0.0617914 5.88474 0.271195 5.15451 0.628024C4.42428 0.984853 3.77154 1.48211 3.2336 2.09137C2.60323 2.81534 2.14531 3.67288 1.89429 4.59942L2.38608 4.52993L5.13177 4.07701L5.34366 3.86027C5.93105 3.21096 6.74396 2.8101 7.61668 2.73939C8.4894 2.66869 9.35624 2.93347 10.0405 3.47976L10.5041 3.50406Z" fill="var(--fill-0, #EA4335)"/>
<path id="Path 4428" d="M13.8328 4.55816C13.5173 3.396 12.8694 2.35121 11.9686 1.55199L10.0418 3.47883C10.4434 3.80699 10.7652 4.22205 10.9829 4.69271C11.2007 5.16337 11.3088 5.67734 11.299 6.19585V6.53603C11.7513 6.53603 12.1851 6.71571 12.5049 7.03555C12.8248 7.3554 13.0045 7.78919 13.0045 8.24152C13.0045 8.69384 12.8248 9.12764 12.5049 9.44748C12.1851 9.76732 11.7513 9.94701 11.299 9.94701H7.86418L7.52692 10.3129V12.37L7.86418 12.6927H11.299C12.2558 12.7029 13.1904 12.4043 13.964 11.8412C14.7377 11.2781 15.3092 10.4806 15.5936 9.56705C15.8781 8.65345 15.8605 7.67248 15.5432 6.76973C15.226 5.86698 14.6262 5.09056 13.8328 4.55573" fill="var(--fill-0, #4285F4)"/>
<path id="Path 4429" d="M4.4345 12.6949H7.86443V9.9487H4.4345C4.19174 9.94867 3.95185 9.89612 3.73131 9.79465L3.24535 9.94385L1.86278 11.3167L1.74226 11.7842C2.51632 12.374 3.46232 12.6939 4.43547 12.6949" fill="var(--fill-0, #05D9C2)"/>
<path id="Path 4430" d="M4.43431 3.78743C3.50495 3.79303 2.60055 4.08873 1.84741 4.63325C1.09426 5.17776 0.529975 5.9439 0.233355 6.82466C-0.0632657 7.70542 -0.0774096 8.65683 0.192898 9.54602C0.463206 10.4352 1.00447 11.2178 1.7411 11.7844L3.73063 9.79491C3.4778 9.68068 3.25646 9.50682 3.0856 9.28824C2.91473 9.06966 2.79945 8.81289 2.74964 8.53996C2.69983 8.26704 2.71698 7.9861 2.79961 7.72125C2.88224 7.45641 3.0279 7.21557 3.22407 7.01939C3.42025 6.82322 3.66109 6.67756 3.92594 6.59493C4.19078 6.51229 4.47172 6.49514 4.74465 6.54496C5.01758 6.59477 5.27434 6.71005 5.49292 6.88091C5.7115 7.05178 5.88536 7.27312 5.99959 7.52594L7.98913 5.53641C7.57159 4.99035 7.03339 4.54828 6.41662 4.24478C5.79984 3.94128 5.12122 3.78458 4.43382 3.78694" fill="var(--fill-0, #FBBC05)"/>
</g>
</svg>
