<svg width="16" height="13" viewBox="0 0 16 13" fill="none" xmlns="http://www.w3.org/2000/svg">
<path d="M10.5041 3.50406L11.8769 2.13121L11.9683 1.55291C11.3596 1.01434 10.6507 0.60102 9.88221 0.336582C9.11368 0.0721434 8.30057 -0.0382274 7.48936 0.0117794C6.67814 0.0617863 5.88474 0.27119 5.15451 0.628019C4.42428 0.984848 3.77154 1.4821 3.2336 2.09136C2.60323 2.81533 2.14531 3.67287 1.89429 4.59942L2.38608 4.52993L5.13178 4.07701L5.34366 3.86027C5.93105 3.21095 6.74396 2.81009 7.61668 2.73939C8.4894 2.66869 9.35624 2.93347 10.0405 3.47976L10.5041 3.50406Z" fill="#EA4335"/>
<path d="M13.8328 4.55817C13.5173 3.39601 12.8695 2.35123 11.9687 1.552L10.0418 3.47885C10.4434 3.807 10.7652 4.22206 10.983 4.69273C11.2008 5.16339 11.3088 5.67736 11.299 6.19587V6.53604C11.7513 6.53604 12.1851 6.71573 12.505 7.03557C12.8248 7.35541 13.0045 7.78921 13.0045 8.24153C13.0045 8.69386 12.8248 9.12766 12.505 9.4475C12.1851 9.76734 11.7513 9.94702 11.299 9.94702H7.86424L7.52698 10.313V12.37L7.86424 12.6927H11.299C12.2558 12.7029 13.1904 12.4043 13.9641 11.8412C14.7377 11.2782 15.3092 10.4807 15.5937 9.56706C15.8782 8.65347 15.8605 7.6725 15.5433 6.76975C15.2261 5.86699 14.6263 5.09058 13.8328 4.55574" fill="#4285F4"/>
<path d="M4.43455 12.6949H7.86448V9.94873H4.43455C4.19178 9.9487 3.9519 9.89615 3.73136 9.79468L3.24539 9.94387L1.86283 11.3167L1.74231 11.7842C2.51637 12.374 3.46237 12.6939 4.43552 12.6949" fill="#05D9C2"/>
<path d="M4.43427 3.78744C3.50492 3.79304 2.60052 4.08874 1.84737 4.63326C1.09423 5.17777 0.529939 5.94391 0.233319 6.82467C-0.0633011 7.70543 -0.077445 8.65684 0.192863 9.54603C0.46317 10.4352 1.00443 11.2178 1.74106 11.7845L3.73059 9.79492C3.47777 9.68069 3.25642 9.50683 3.08556 9.28825C2.9147 9.06967 2.79942 8.8129 2.74961 8.53997C2.69979 8.26705 2.71694 7.98611 2.79957 7.72126C2.88221 7.45642 3.02786 7.21558 3.22404 7.0194C3.42022 6.82323 3.66106 6.67757 3.9259 6.59494C4.19075 6.5123 4.47168 6.49515 4.74461 6.54497C5.01754 6.59478 5.27431 6.71006 5.49289 6.88092C5.71147 7.05179 5.88533 7.27313 5.99956 7.52595L7.98909 5.53642C7.57156 4.99036 7.03336 4.54829 6.41658 4.24479C5.79981 3.94129 5.12118 3.78459 4.43378 3.78695" fill="#FBBC05"/>
</svg>
