<svg preserveAspectRatio="none" width="100%" height="100%" overflow="visible" style="display: block;" viewBox="0 0 15.2043 16.4675" fill="none" xmlns="http://www.w3.org/2000/svg">
<g id="Group 33704">
<path id="Path 3413" d="M7.03173 3.40905C6.51344 2.52406 6.22168 1.52479 6.18237 0.49995C4.47483 0.869337 2.77844 1.53145 2.87647 2.01932C2.88902 2.08065 2.96615 2.15453 3.09485 2.22608L2.89413 2.58524C2.7924 2.54072 2.70187 2.47408 2.62913 2.39017C2.55639 2.30626 2.50327 2.20719 2.47363 2.10016C2.36305 1.54817 2.98799 1.04869 4.38422 0.573363C5.02535 0.360742 5.67835 0.18574 6.33988 0.0492516L6.58568 0V0.249046C6.60104 1.27682 6.87253 2.28452 7.37556 3.18091L7.03173 3.40905Z" fill="var(--fill-0, #CFD8DC)"/>
<path id="Path 3414" d="M7.71929 16.4675H7.61614C4.24426 16.4675 0.491381 15.4081 0.0476517 13.6379C-0.222767 12.5552 0.661903 11.3611 2.60316 10.18L2.81736 10.5317C1.06985 11.5907 0.228396 12.6579 0.447705 13.5361C0.832425 15.0745 4.38876 16.034 7.5102 16.0554C8.2625 14.8481 8.75943 13.4996 8.97033 12.0928C9.18122 10.6861 9.1016 9.2511 8.73638 7.87634L9.13457 7.77273C9.52155 9.22332 9.60126 10.7387 9.36859 12.2219C9.13591 13.7051 8.59599 15.1233 7.78341 16.3857L7.71929 16.4675Z" fill="var(--fill-0, #CFD8DC)"/>
<path id="Path 3415" d="M1.61922 14.9467C1.50189 14.9502 1.38454 14.9405 1.26935 14.9179C1.23391 14.9091 1.20145 14.8911 1.17529 14.8656C1.14912 14.8402 1.1302 14.8082 1.12046 14.7731C1.11072 14.7379 1.11051 14.7007 1.11985 14.6654C1.1292 14.6302 1.14776 14.598 1.17363 14.5722C1.20337 14.5425 4.13616 11.6051 4.53203 9.2289L4.93766 9.29627C4.59708 11.3407 2.5852 13.669 1.78649 14.5267C2.58474 14.4802 4.59987 14.1085 8.46891 11.9419C5.44876 11.6111 4.97205 9.19405 4.9674 9.16803L5.3721 9.09369C5.39161 9.19498 5.8767 11.5679 9.17702 11.5679H9.18027C9.22565 11.5678 9.2698 11.5827 9.30585 11.6102C9.34189 11.6378 9.36782 11.6765 9.37958 11.7204C9.39135 11.7642 9.3883 11.8107 9.37091 11.8526C9.35352 11.8945 9.32276 11.9295 9.28342 11.9521C4.65842 14.6322 2.41607 14.9463 1.61922 14.9467Z" fill="var(--fill-0, #CFD8DC)"/>
<path id="Path 3416" d="M3.50731 15.9307C3.46411 15.9303 3.42213 15.9163 3.38732 15.8907C3.35252 15.8651 3.32666 15.8292 3.31339 15.7881C3.30013 15.7469 3.30015 15.7027 3.31344 15.6616C3.32672 15.6205 3.35261 15.5846 3.38743 15.559C3.98765 15.0661 4.50296 14.4781 4.91284 13.8185C4.60219 13.6814 4.30037 13.5251 4.00912 13.3506C3.69063 13.1656 3.40426 12.9303 3.16115 12.6536C2.22219 12.922 1.24449 13.0289 0.269715 12.97L0.304098 12.5602C1.17998 12.6145 2.05884 12.5255 2.90607 12.2968C2.71909 11.9582 2.61717 11.5794 2.60907 11.1927C2.60098 10.8061 2.68696 10.4233 2.85961 10.0772L3.21923 10.2775C3.067 10.5759 2.99632 10.9092 3.01435 11.2438C3.03238 11.5783 3.13849 11.9021 3.32192 12.1825C4.31242 11.889 5.27404 11.5056 6.19477 11.0371C6.44815 10.1949 6.61703 9.32948 6.69891 8.45375C6.70208 8.42112 6.71301 8.38973 6.73077 8.36217C6.74854 8.33462 6.77263 8.31171 6.80104 8.29534C6.82944 8.27898 6.86135 8.26964 6.8941 8.2681C6.92684 8.26656 6.95949 8.27286 6.98931 8.28648C7.00232 8.29252 8.33304 8.90027 9.29623 9.29661C9.33062 9.31073 9.36054 9.3339 9.38282 9.36366C9.4051 9.39343 9.4189 9.42867 9.42276 9.46564C9.42662 9.50262 9.4204 9.53995 9.40474 9.57367C9.38909 9.60739 9.3646 9.63625 9.33387 9.65716C8.44055 10.2699 7.50942 10.8257 6.54604 11.321C6.29621 12.1237 5.95675 12.8957 5.53406 13.6224C6.4515 13.9665 7.41808 14.1616 8.39716 14.2004C8.44267 14.2007 8.48681 14.216 8.52271 14.2439C8.55861 14.2719 8.58426 14.311 8.59566 14.355C8.60706 14.3991 8.60357 14.4457 8.58574 14.4875C8.5679 14.5294 8.53672 14.5642 8.49705 14.5865C6.62828 15.6245 3.65367 15.9168 3.52775 15.9288L3.50731 15.9307ZM5.31243 13.9825C4.97878 14.5073 4.58932 14.9944 4.15083 15.4354C5.3343 15.2747 6.49553 14.9793 7.61192 14.5549C6.82503 14.4581 6.05286 14.2659 5.31243 13.9825ZM3.60767 12.5268C3.79234 12.7075 3.99829 12.8651 4.22099 12.9961C4.5149 13.172 4.82023 13.3282 5.13494 13.4635C5.48922 12.8667 5.78487 12.2369 6.01775 11.5831C5.23931 11.9581 4.43366 12.2732 3.60767 12.5268ZM7.07991 8.78039C7.00329 9.45462 6.87766 10.1224 6.70402 10.7783C7.3875 10.4141 8.08446 9.99774 8.78745 9.53264C8.14997 9.26129 7.44883 8.9472 7.07944 8.78039H7.07991Z" fill="var(--fill-0, #CFD8DC)"/>
<path id="Path 3417" d="M4.90939 3.13054C4.86031 3.1303 4.81291 3.11269 4.77558 3.08083C4.22181 2.54468 3.72652 1.95126 3.29803 1.31056C3.27245 1.27233 3.26041 1.22665 3.26382 1.18078C3.26724 1.13492 3.28592 1.09152 3.31688 1.05751C3.34784 1.0235 3.3893 1.00084 3.43465 0.99314C3.47999 0.985445 3.5266 0.993157 3.56705 1.01505C4.54267 1.2793 5.53531 1.47616 6.53795 1.60421C6.57443 1.6102 6.60862 1.62591 6.63693 1.64968C6.66524 1.67345 6.68663 1.70441 6.69885 1.7393C6.71106 1.77419 6.71366 1.81173 6.70636 1.84797C6.69906 1.88421 6.68213 1.91781 6.65736 1.94525C6.18957 2.45227 5.61771 2.85216 4.98095 3.11753C4.958 3.12586 4.93381 3.13026 4.90939 3.13054ZM3.97222 1.5438C4.26532 1.95011 4.59169 2.33134 4.94796 2.68356C5.3588 2.49369 5.7394 2.24429 6.07749 1.94339C5.01486 1.76218 4.36669 1.63301 3.97222 1.5438Z" fill="var(--fill-0, #CFD8DC)"/>
<path id="Path 3418" d="M6.52185 8.81017C6.49302 8.81021 6.4645 8.80417 6.43816 8.79245C6.41182 8.78073 6.38824 8.7636 6.36895 8.74217C6.34967 8.72074 6.33511 8.69548 6.32623 8.66805C6.31735 8.64062 6.31435 8.61163 6.31741 8.58296C6.43775 7.45157 4.7014 6.99762 4.68374 6.99344C4.64871 6.98421 4.61674 6.9659 4.59105 6.94035C4.56537 6.91481 4.54688 6.88294 4.53745 6.84797C4.52802 6.81299 4.52799 6.77614 4.53736 6.74115C4.54673 6.70616 4.56517 6.67426 4.59082 6.64868C5.95629 5.3286 7.53206 4.24511 9.25346 3.44268C9.28819 3.42734 9.3265 3.42194 9.36412 3.42707C9.40174 3.4322 9.43721 3.44766 9.46657 3.47173C9.49594 3.4958 9.51805 3.52754 9.53047 3.56342C9.54288 3.5993 9.5451 3.63792 9.53689 3.67499C9.04855 6.03954 6.77508 8.63268 6.67843 8.73955C6.65879 8.76169 6.63468 8.77943 6.60769 8.7916C6.58071 8.80377 6.55145 8.8101 6.52185 8.81017ZM5.12794 6.7049C5.61534 6.88797 6.46888 7.31218 6.68494 8.08627C7.28153 7.34285 8.55464 5.62787 9.02997 3.99745C7.61047 4.7154 6.29717 5.62637 5.12747 6.70443L5.12794 6.7049Z" fill="var(--fill-0, #B71C1C)"/>
<path id="Path 3419" d="M2.91428 10.4398L2.71681 10.0765C3.63529 9.53686 4.4457 8.83153 5.10691 7.9963C4.48801 8.42005 4.13117 8.71045 4.12234 8.71975L3.85936 8.40286C4.4668 7.92264 5.10298 7.47995 5.76437 7.07725C6.07716 6.5926 6.31363 6.06278 6.46551 5.50631C6.48735 5.41896 6.5064 5.33486 6.52126 5.25308C5.86533 5.01576 5.18822 4.84166 4.49916 4.73315C4.46192 4.72791 4.42682 4.71257 4.39769 4.68879C4.36855 4.66501 4.34649 4.6337 4.3339 4.59826C4.3213 4.56282 4.31866 4.52461 4.32625 4.48778C4.33384 4.45094 4.35138 4.41689 4.37696 4.38932C4.93107 3.80916 5.57942 3.32702 6.29452 2.96335C6.33416 2.9446 6.37874 2.93899 6.42178 2.94735C6.46483 2.95571 6.50407 2.97759 6.53381 3.00981C6.73974 3.29138 6.88584 3.61213 6.96311 3.95231C7.04038 4.29248 7.04719 4.64487 6.98311 4.98778C7.47785 5.17905 7.95813 5.40576 8.42024 5.66615C9.6365 5.1112 10.9106 4.69295 12.2191 4.41906C12.2553 4.4122 12.2926 4.41498 12.3274 4.42714C12.3621 4.43929 12.393 4.46038 12.4171 4.48829C12.4408 4.51661 12.4565 4.55077 12.4625 4.58721C12.4686 4.62366 12.4647 4.66105 12.4514 4.69552C11.9411 5.76828 11.2546 6.74798 10.4205 7.59393C10.3999 7.61444 10.3753 7.63045 10.3482 7.64093C10.321 7.65141 10.292 7.65613 10.263 7.6548C10.2339 7.65313 10.2055 7.64536 10.1797 7.63199C10.1538 7.61862 10.1311 7.59995 10.1129 7.5772C9.63128 6.99572 9.04992 6.50467 8.39608 6.12707C7.59245 6.49924 6.8113 6.91813 6.05663 7.38159C5.26112 8.63139 4.1852 9.67852 2.91428 10.4398ZM8.84678 5.92681C9.37896 6.26254 9.86159 6.67104 10.2806 7.14044C10.9136 6.46859 11.4588 5.71919 11.9032 4.91018C10.8558 5.15604 9.83277 5.49631 8.84678 5.92681ZM6.91528 5.40223C6.90165 5.46945 6.88616 5.53806 6.86881 5.60807C6.77366 5.97282 6.63954 6.32628 6.46876 6.66233C6.91992 6.40446 7.41941 6.13868 7.95792 5.88127C7.61938 5.70268 7.27131 5.54276 6.91528 5.40223ZM4.95962 4.39397C5.51011 4.50478 6.05212 4.65414 6.58167 4.84095C6.64515 4.34841 6.552 3.84837 6.31543 3.41172C5.82376 3.68046 5.36818 4.01051 4.95962 4.39397Z" fill="var(--fill-0, #B71C1C)"/>
<path id="Path 3420" d="M4.96069 6.38214C4.96069 8.18493 3.45805 9.61741 2.37591 10.6628C2.13132 10.794 1.85886 10.8645 1.58138 10.8687C1.73378 10.7121 1.90662 10.5476 2.09248 10.3706C3.12165 9.37441 4.54995 8.01209 4.54995 6.38214C4.58875 5.76216 4.48333 5.14162 4.24196 4.56924C4.00059 3.99686 3.62984 3.4882 3.15882 3.08321C2.8934 2.83856 2.67568 2.54678 2.51669 2.2227L2.64447 2.16927C2.78386 2.23107 2.94509 2.30076 3.06822 2.35512C3.18246 2.51177 3.3106 2.65779 3.45108 2.79142C3.95918 3.23574 4.35925 3.7901 4.62085 4.41232C4.88244 5.03454 4.99867 5.70823 4.96069 6.38214Z" fill="var(--fill-0, #B71C1C)"/>
<path id="Path 3421" d="M15.2043 6.91525C15.2043 6.91525 14.9552 6.95056 14.8851 6.95892C11.6517 7.3321 8.47627 8.10079 5.43016 9.24773C4.63997 9.56179 3.87256 9.93036 3.13345 10.3508C3.12927 10.355 3.12509 10.355 3.11719 10.3591C2.68926 10.6063 1.64754 11.1165 0.803761 11.5672C2.03877 10.2541 4.35173 9.24169 5.27404 8.8723C8.24043 7.75419 11.3284 6.99 14.4739 6.59558C13.5395 5.55895 12.3589 4.77463 11.0411 4.31513C9.57043 3.85581 8.05798 3.54283 6.52577 3.38075C4.03299 3.01972 2.61074 2.7809 2.47506 2.1016C2.44764 1.96496 2.46644 1.82308 2.5285 1.69829C2.64802 1.88354 2.80329 2.04308 2.98524 2.16758C3.02502 2.1945 3.06628 2.21916 3.10883 2.24145L3.11301 2.24564C3.69752 2.55416 5.27404 2.7809 6.58711 2.97001C8.14788 3.13754 9.68852 3.45734 11.187 3.92484C14.0148 5.01581 14.9905 6.5756 15.0314 6.64158C15.0723 6.70755 15.2043 6.91525 15.2043 6.91525Z" fill="var(--fill-0, #B71C1C)"/>
</g>
</svg>
