<svg width="12" height="13" viewBox="0 0 12 13" fill="none" xmlns="http://www.w3.org/2000/svg">
<g clip-path="url(#clip0_722_1620)">
<path d="M9.21315 4.2792V2.72991C9.61612 2.5368 9.87487 2.11546 9.87911 1.65463V1.61951C9.87911 0.961175 9.36161 0.425726 8.72534 0.425726H8.69141C8.05514 0.425726 7.53765 0.961175 7.53765 1.61951V1.65463C7.53765 2.11546 7.79639 2.53241 8.2036 2.72991V4.2792C7.63521 4.37137 7.10074 4.61276 6.65111 4.98582L2.54931 1.68096C2.579 1.57124 2.59597 1.45712 2.59597 1.3474C2.59597 0.605672 2.01909 0 1.30223 0C0.585366 0 0 0.596894 0 1.33862C0 2.08035 0.576882 2.68163 1.29374 2.68602C1.51856 2.68602 1.73913 2.62458 1.93425 2.50608L5.97667 5.75827C5.23436 6.92134 5.25557 8.43113 6.02757 9.57225L4.79745 10.845C4.69989 10.8143 4.59385 10.7968 4.49205 10.7924C3.90244 10.7924 3.42736 11.2883 3.42736 11.894C3.42736 12.5041 3.90668 12.9956 4.49205 12.9956C5.08165 12.9956 5.55673 12.5041 5.55673 11.894C5.55673 11.7843 5.53977 11.6789 5.50583 11.578L6.72322 10.3184C8.15695 11.4595 10.2142 11.183 11.3213 9.69953C12.4242 8.21607 12.1569 6.08744 10.7232 4.94193C10.2821 4.59082 9.76458 4.36259 9.21739 4.27481M8.70838 9.37036C7.77943 9.39669 7.00742 8.63741 6.98197 7.68062C6.95652 6.71945 7.69035 5.92066 8.61506 5.89433C8.64475 5.89433 8.67868 5.89433 8.70838 5.89433C9.63733 5.92944 10.3627 6.73261 10.3287 7.69379C10.299 8.60668 9.59067 9.33964 8.70838 9.37036Z" fill="#FF7A59"/>
</g>
<defs>
<clipPath id="clip0_722_1620">
<rect width="12" height="13" fill="white"/>
</clipPath>
</defs>
</svg>
