<svg preserveAspectRatio="none" width="100%" height="100%" overflow="visible" style="display: block;" viewBox="0 0 20.1151 20.1151" fill="none" xmlns="http://www.w3.org/2000/svg">
<g id="video-square">
<path id="Vector" opacity="0.4" d="M13.5693 1.67626H6.54578C3.49499 1.67626 1.67626 3.49499 1.67626 6.54578V13.5609C1.67626 16.6201 3.49499 18.4388 6.54578 18.4388H13.5609C16.6117 18.4388 18.4304 16.6201 18.4304 13.5693V6.54578C18.4388 3.49499 16.6201 1.67626 13.5693 1.67626Z" fill="var(--fill-0, #01D9C1)"/>
<path id="Vector_2" d="M7.62694 10.0579V8.81751C7.62694 7.21668 8.75842 6.57132 10.1413 7.36755L11.2141 7.98776L12.2869 8.60797C13.6698 9.4042 13.6698 10.7117 12.2869 11.5079L11.2141 12.1281L10.1413 12.7483C8.75842 13.5445 7.62694 12.8908 7.62694 11.2984V10.0579Z" fill="var(--fill-0, #01D9C1)"/>
<g id="Vector_3" opacity="0">
</g>
</g>
</svg>
