<svg preserveAspectRatio="none" width="100%" height="100%" overflow="visible" style="display: block;" viewBox="0 0 20.1151 20.1151" fill="none" xmlns="http://www.w3.org/2000/svg">
<g id="profile-remove">
<path id="Vector" d="M10.0575 1.67626C7.86164 1.67626 6.07643 3.46147 6.07643 5.65736C6.07643 7.81135 7.76106 9.55466 9.95696 9.63009C10.024 9.62171 10.0911 9.62171 10.1413 9.63009C10.1581 9.63009 10.1665 9.63009 10.1833 9.63009C10.1916 9.63009 10.1916 9.63009 10.2 9.63009C12.3456 9.55466 14.0303 7.81135 14.0386 5.65736C14.0386 3.46147 12.2534 1.67626 10.0575 1.67626Z" fill="var(--fill-0, #FF2B10)"/>
<path id="Vector_2" opacity="0.4" d="M14.3152 11.8679C11.9768 10.309 8.16337 10.309 5.80823 11.8679C4.7438 12.5719 4.15711 13.5358 4.15711 14.5667C4.15711 15.5976 4.7438 16.553 5.79985 17.2571C6.97322 18.0449 8.51538 18.4388 10.0575 18.4388C11.5997 18.4388 13.1418 18.0449 14.3152 17.2571C15.3713 16.5446 15.958 15.5892 15.958 14.5499C15.9496 13.5274 15.3713 12.5635 14.3152 11.8679Z" fill="var(--fill-0, #FF2B10)"/>
<path id="Vector_3" d="M11.5913 15.145H8.53214C8.21365 15.145 7.95383 14.8852 7.95383 14.5667C7.95383 14.2482 8.21365 13.9884 8.53214 13.9884H11.5913C11.9098 13.9884 12.1696 14.2482 12.1696 14.5667C12.1612 14.8852 11.9098 15.145 11.5913 15.145Z" fill="var(--fill-0, #FF2B10)"/>
<g id="Vector_4" opacity="0">
</g>
</g>
</svg>
