<svg width="11" height="11" viewBox="0 0 11 11" fill="none" xmlns="http://www.w3.org/2000/svg">
<path d="M3.43546 10.6893C3.30443 10.6896 3.17503 10.6601 3.05707 10.6031C2.93911 10.546 2.83568 10.4628 2.75463 10.3599L0.19197 7.17417C0.108315 7.07103 0.0496977 6.94991 0.0207167 6.8203C-0.00826431 6.6907 -0.00682075 6.55614 0.0249342 6.42719L0.940288 2.45175C0.969064 2.3233 1.02674 2.20311 1.10894 2.1003C1.19115 1.99749 1.2957 1.91477 1.41467 1.85844L5.11951 0.0878627C5.23809 0.0300476 5.36827 0 5.50019 0C5.6321 0 5.76229 0.0300476 5.88086 0.0878627L9.58571 1.85242C9.70493 1.90855 9.80978 1.99113 9.89228 2.09388C9.97477 2.19664 10.0327 2.31686 10.0618 2.4454L10.9771 6.42085C11.0071 6.54991 11.0076 6.68406 10.9787 6.81337C10.9498 6.94267 10.8922 7.06382 10.8101 7.16783L8.24742 10.3529C8.16526 10.4546 8.06161 10.5369 7.9439 10.5938C7.82619 10.6508 7.69734 10.681 7.56658 10.6823L3.43546 10.6893Z" fill="#326DE6"/>
<path d="M9.20242 6.14887H9.1954C9.18805 6.14887 9.1807 6.14887 9.1807 6.14152C9.166 6.14152 9.1513 6.13417 9.1366 6.13417C9.09068 6.12605 9.04424 6.12113 8.99763 6.11947C8.97302 6.12033 8.94842 6.11785 8.92447 6.11212H8.91712C8.78331 6.10364 8.65075 6.08125 8.52158 6.04531C8.50336 6.03812 8.48681 6.02726 8.47297 6.01341C8.45912 5.99956 8.44826 5.98302 8.44107 5.9648C8.44107 5.95745 8.43372 5.95745 8.43372 5.9501L8.33851 5.9207C8.38354 5.57622 8.36623 5.22644 8.2874 4.88809C8.20748 4.54701 8.06877 4.22245 7.87749 3.92897L7.95065 3.86216V3.84746C7.9493 3.80765 7.96221 3.76867 7.98707 3.73755C8.08953 3.6518 8.19981 3.57586 8.31646 3.51071C8.33851 3.49602 8.36022 3.48867 8.38327 3.47397C8.42637 3.45234 8.468 3.42791 8.50788 3.40081C8.51523 3.39346 8.52993 3.38611 8.54463 3.37141C8.55198 3.36406 8.55933 3.36406 8.55933 3.35671C8.60793 3.31845 8.64022 3.26319 8.6497 3.20207C8.65919 3.14095 8.64516 3.0785 8.61044 3.02731C8.59072 3.0019 8.56537 2.9814 8.53639 2.96743C8.5074 2.95346 8.47558 2.9464 8.44341 2.9468C8.38484 2.94843 8.32836 2.96894 8.28239 3.00526L8.26769 3.01996C8.25299 3.02731 8.24564 3.04201 8.23094 3.04936C8.19725 3.08168 8.16546 3.11593 8.13573 3.15192C8.12058 3.17075 8.10344 3.18788 8.08462 3.20304C7.99656 3.30102 7.89835 3.38937 7.79164 3.46662C7.77213 3.48059 7.74882 3.48829 7.72482 3.48867C7.70974 3.48986 7.6946 3.48733 7.68072 3.48132H7.66602L7.57816 3.53978C7.48337 3.44132 7.38298 3.34841 7.2775 3.2615C6.83612 2.91653 6.30492 2.7056 5.74712 2.65382L5.73977 2.55861L5.72507 2.54391C5.69431 2.52066 5.67343 2.48666 5.66661 2.4487C5.66378 2.31649 5.67115 2.18425 5.68866 2.05316V2.04581C5.69002 2.02085 5.69497 1.99621 5.70336 1.97265C5.71071 1.92889 5.71806 1.88479 5.72541 1.83368V1.76686C5.72887 1.72047 5.71777 1.67415 5.69365 1.63437C5.66954 1.59459 5.63361 1.56332 5.59087 1.54493C5.54814 1.52654 5.50073 1.52195 5.45526 1.53179C5.40979 1.54163 5.36852 1.56542 5.33722 1.59983C5.3156 1.62188 5.29857 1.648 5.2871 1.67666C5.27564 1.70533 5.26996 1.73599 5.2704 1.76686V1.82533C5.27001 1.87255 5.27746 1.91952 5.29245 1.9643C5.2998 1.98635 5.2998 2.0084 5.30715 2.03746V2.04481C5.32831 2.17552 5.3357 2.3081 5.3292 2.44035C5.32241 2.47832 5.30153 2.51233 5.27074 2.53556L5.25604 2.55026L5.24869 2.64547C5.11588 2.65776 4.98384 2.67728 4.85315 2.70393C4.29777 2.82596 3.79218 3.11287 3.40261 3.52708L3.32945 3.47597H3.31575C3.30106 3.47597 3.28636 3.48332 3.27166 3.48332C3.24766 3.48292 3.22436 3.47523 3.20484 3.46127C3.09814 3.38127 2.99996 3.29048 2.91186 3.19034C2.89671 3.17152 2.87957 3.15438 2.86075 3.13923C2.83102 3.10323 2.79923 3.06899 2.76554 3.03667C2.75819 3.02932 2.74349 3.02197 2.72913 3.00727C2.72178 2.99992 2.71443 2.99992 2.71443 2.99257C2.66906 2.95516 2.6122 2.93452 2.55341 2.93411C2.52124 2.93373 2.48942 2.9408 2.46044 2.95477C2.43146 2.96874 2.40611 2.98922 2.38637 3.01462C2.35165 3.06581 2.33762 3.12825 2.34711 3.18937C2.35659 3.2505 2.38889 3.30575 2.43748 3.34401C2.44483 3.34401 2.44483 3.35136 2.45218 3.35136C2.46688 3.35871 2.47423 3.37341 2.48893 3.38076C2.52883 3.40783 2.57046 3.43227 2.61354 3.45392C2.6373 3.46324 2.65976 3.47559 2.68035 3.49067C2.79701 3.55581 2.90729 3.63175 3.00975 3.7175C3.02373 3.73189 3.03429 3.74924 3.04065 3.76827C3.04702 3.78729 3.04901 3.80751 3.04649 3.82741V3.84211L3.11966 3.90893C3.10485 3.92668 3.09249 3.94635 3.08291 3.96739C2.72004 4.54169 2.57409 5.22665 2.67133 5.89899L2.57612 5.92838C2.57612 5.93573 2.56877 5.93574 2.56877 5.94309C2.55198 5.97838 2.52355 6.00681 2.48826 6.0236C2.35934 6.06013 2.22682 6.08254 2.09306 6.09041H2.08571C2.06109 6.08923 2.03643 6.09171 2.01254 6.09776C1.96593 6.09942 1.9195 6.10433 1.87357 6.11246C1.85887 6.11246 1.84417 6.11981 1.82947 6.11981C1.82548 6.11932 1.82143 6.11972 1.81762 6.12099C1.81381 6.12227 1.81032 6.12437 1.80743 6.12716C1.74698 6.13926 1.69351 6.17413 1.65806 6.22456C1.62262 6.27499 1.60792 6.33712 1.617 6.39809C1.63053 6.44875 1.66126 6.49313 1.70393 6.5236C1.7466 6.55408 1.79855 6.56876 1.85085 6.56512C1.87063 6.5663 1.89045 6.56381 1.90932 6.55778C1.91667 6.55778 1.92402 6.55777 1.92402 6.55042C1.93871 6.55042 1.95341 6.54308 1.96778 6.54308C2.01338 6.53053 2.05759 6.5134 2.09974 6.49196C2.12179 6.48461 2.1435 6.46991 2.16655 6.46257H2.1739C2.2964 6.41199 2.42413 6.37512 2.55474 6.35265H2.56744C2.60229 6.35438 2.63567 6.36726 2.66265 6.3894C2.67 6.3894 2.67 6.39675 2.67735 6.39675L2.7799 6.38205C2.95676 6.92554 3.29047 7.40455 3.73902 7.75876C3.83928 7.83622 3.94439 7.90719 4.05372 7.97123L4.00962 8.06644C4.00962 8.07379 4.01697 8.07379 4.01697 8.08114C4.02719 8.09868 4.03377 8.11811 4.03629 8.13827C4.03882 8.15842 4.03725 8.17887 4.03167 8.1984C3.97931 8.3189 3.91555 8.43413 3.84125 8.54249V8.54984C3.82655 8.57189 3.81185 8.58659 3.79749 8.6083C3.76809 8.64505 3.74604 8.68146 3.71697 8.72556C3.708 8.73676 3.70058 8.74912 3.69493 8.76231C3.69417 8.76789 3.69159 8.77306 3.68757 8.77701C3.67303 8.80389 3.66396 8.83339 3.66088 8.8638C3.65779 8.89421 3.66076 8.92493 3.66962 8.95419C3.67847 8.98345 3.69303 9.01066 3.71245 9.03426C3.73187 9.05787 3.75578 9.07739 3.78279 9.0917C3.80994 9.10584 3.84003 9.1134 3.87065 9.11375C3.91622 9.11157 3.96044 9.09758 3.99897 9.07316C4.03751 9.04874 4.06904 9.01472 4.09046 8.97444C4.09122 8.96886 4.0938 8.96369 4.09781 8.95974C4.1035 8.94657 4.11091 8.93421 4.11986 8.923C4.13678 8.87978 4.1515 8.83574 4.16396 8.79104L4.18601 8.72422C4.22284 8.5962 4.27441 8.47288 4.33968 8.35675C4.36356 8.32497 4.39689 8.30158 4.43489 8.28993C4.44224 8.28993 4.44224 8.28993 4.44959 8.28258L4.50104 8.18737C4.82813 8.31309 5.17554 8.37763 5.52597 8.37779C5.7405 8.3792 5.95441 8.35463 6.16304 8.30463C6.2921 8.27577 6.41929 8.23906 6.54388 8.19472L6.58764 8.27523C6.59499 8.27523 6.59499 8.27523 6.60234 8.28258C6.62218 8.28596 6.64101 8.29371 6.65747 8.30527C6.67394 8.31682 6.68763 8.3319 6.69755 8.3494C6.75844 8.46762 6.80983 8.5905 6.85123 8.71687V8.72422L6.87328 8.79104C6.88454 8.83606 6.89917 8.88017 6.91704 8.923C6.92439 8.9377 6.93174 8.94505 6.93909 8.95974C6.93984 8.96532 6.94242 8.97049 6.94644 8.97444C6.9666 9.01566 6.99778 9.05049 7.03651 9.07508C7.07525 9.09967 7.12004 9.11305 7.16592 9.11375C7.19653 9.1134 7.22663 9.10584 7.25378 9.0917C7.28008 9.07829 7.30338 9.05968 7.32227 9.03699C7.34116 9.01431 7.35525 8.98803 7.36369 8.95974C7.38078 8.89892 7.37557 8.83399 7.34899 8.77667C7.34899 8.76932 7.34164 8.76932 7.34164 8.76197C7.33596 8.7488 7.32854 8.73644 7.31959 8.72523C7.29703 8.68337 7.27004 8.64406 7.23908 8.60797C7.22438 8.58592 7.20968 8.57155 7.19532 8.54951V8.54216C7.11827 8.43551 7.05433 8.31999 7.0049 8.19806C6.9958 8.1591 6.99836 8.11833 7.01225 8.0808C7.01225 8.07345 7.0196 8.07345 7.0196 8.06611L6.98285 7.97824C7.58819 7.61618 8.04109 7.0462 8.257 6.3747L8.34486 6.3894C8.35221 6.3894 8.35221 6.38205 8.35956 6.38205C8.38729 6.36131 8.42026 6.3487 8.45477 6.34564H8.46947C8.60008 6.36811 8.7278 6.40498 8.85031 6.45555H8.85766C8.8797 6.4629 8.90142 6.4776 8.92447 6.48495C8.96662 6.50648 9.01083 6.52371 9.05643 6.53639C9.07113 6.53639 9.08583 6.54374 9.10053 6.54374C9.10452 6.54323 9.10857 6.54362 9.11239 6.5449C9.11621 6.54617 9.11969 6.54829 9.12257 6.55109C9.14144 6.55711 9.16126 6.5596 9.18104 6.55844C9.23258 6.55854 9.28287 6.54248 9.32481 6.51252C9.36676 6.48256 9.39826 6.4402 9.41489 6.39141C9.40837 6.33427 9.38451 6.2805 9.34653 6.23732C9.30855 6.19414 9.25826 6.16363 9.20242 6.14987V6.14887ZM5.81227 5.79008L5.49022 5.94375L5.16818 5.79008L5.08767 5.44599L5.30715 5.16771H5.66594L5.88576 5.44599L5.81227 5.79008ZM7.72348 5.02873C7.78026 5.27091 7.79752 5.52068 7.7746 5.76836L6.65446 5.44632C6.60586 5.43238 6.56442 5.40042 6.5386 5.35696C6.51277 5.3135 6.5045 5.26182 6.51548 5.21247C6.52273 5.18218 6.53796 5.15438 6.55958 5.13196L7.44487 4.33286C7.57425 4.54832 7.66821 4.78315 7.72315 5.0284L7.72348 5.02873ZM7.09376 3.89289L6.13464 4.57373C6.09398 4.59916 6.04538 4.60872 5.99811 4.60058C5.95085 4.59245 5.90824 4.56719 5.87841 4.52963C5.85899 4.50669 5.84627 4.47883 5.84166 4.44912L5.77485 3.25548C6.2741 3.31326 6.73903 3.53854 7.09376 3.89456V3.89289ZM4.97041 3.29156C5.05092 3.27687 5.12408 3.26217 5.20426 3.2478L5.13744 4.41939C5.1349 4.47033 5.11302 4.51839 5.07628 4.55377C5.03953 4.58915 4.99068 4.60919 4.93967 4.60981C4.90895 4.61034 4.87864 4.60273 4.85181 4.58776L3.87933 3.89456C4.17863 3.5947 4.55704 3.38614 4.97041 3.29323V3.29156ZM3.52789 4.33119L4.39915 5.10724C4.43734 5.14066 4.461 5.18765 4.46512 5.23823C4.46924 5.28882 4.45348 5.33901 4.4212 5.37817C4.40022 5.40793 4.36889 5.42878 4.33333 5.43663L3.19749 5.76603C3.15196 5.26529 3.26773 4.76312 3.52789 4.33286V4.33119ZM3.33012 6.31557L4.49436 6.1178C4.54124 6.11483 4.58765 6.12867 4.62524 6.15683C4.66284 6.185 4.68916 6.22565 4.69948 6.27148C4.70826 6.31046 4.70571 6.35115 4.69213 6.38874L4.24547 7.46511C3.82327 7.19189 3.50186 6.78824 3.33012 6.31557ZM6.00269 7.77279C5.83447 7.8107 5.66265 7.8303 5.49022 7.83125C5.23916 7.82983 4.98978 7.7903 4.75059 7.71399L5.3292 6.66735C5.35664 6.63362 5.39471 6.6102 5.43719 6.60092C5.47967 6.59163 5.52404 6.59703 5.56305 6.61624C5.59724 6.63718 5.62707 6.66452 5.65091 6.69675L6.21482 7.71466C6.14801 7.73671 6.07585 7.75141 6.00235 7.77312L6.00269 7.77279ZM7.43051 6.75488C7.25085 7.03964 7.01148 7.28197 6.72896 7.46511L6.2676 6.35934C6.256 6.3155 6.25986 6.269 6.27854 6.22768C6.29722 6.18636 6.32958 6.15274 6.37016 6.1325C6.40224 6.11748 6.43731 6.10994 6.47272 6.11045L7.64431 6.30822C7.59892 6.46868 7.52662 6.62028 7.43051 6.75655V6.75488Z" fill="white"/>
</svg>
