<svg preserveAspectRatio="none" width="100%" height="100%" overflow="visible" style="display: block;" viewBox="0 0 107.359 104.96" fill="none" xmlns="http://www.w3.org/2000/svg">
<g id="Group 34160">
<g id="Marketing: 32 (33.3%)">
<path d="M53.6834 0.334338L56.4754 0.405384L59.2598 0.618954L62.029 0.974182L64.7752 1.4702L67.4911 2.10571L70.1693 2.87855L72.8021 3.78698L75.3824 4.82884L77.9036 6.00023L80.3582 7.29898L82.7398 8.72119L85.0414 10.2625L87.2571 11.9191L89.3813 13.687L91.4073 15.5602L93.3297 17.5343L95.144 19.6042L96.8441 21.7633L98.4259 24.006L99.8854 26.3266L101.218 28.7184L102.42 31.1751L103.49 33.6894L104.422 36.2548L105.215 38.8645L105.867 41.5109L106.376 44.1868L106.741 46.8853L106.96 49.5984L107.033 52.319L106.96 55.0395L106.741 57.7526L106.376 60.4511L105.867 63.127L105.215 65.7734L104.422 68.3831L103.49 70.9485L102.42 73.4628L101.218 75.9195L99.8854 78.3113L88.3348 71.8132L89.3347 70.0193L90.2363 68.1769L91.0378 66.2911L91.7372 64.3673L92.332 62.41L92.8211 60.4251L93.2029 58.4181L93.4764 56.3946L93.6409 54.3594L93.6955 52.319L93.6409 50.2786L93.4764 48.2434L93.2029 46.2199L92.8211 44.2128L92.332 42.2279L91.7372 40.2707L91.0378 38.3468L90.2363 36.461L89.3347 34.6186L88.3348 32.8247L87.2403 31.0841L86.0541 29.402L84.7786 27.7827L83.4182 26.2305L81.9764 24.7498L80.4569 23.3449L78.8639 22.0193L77.2021 20.7764L75.4758 19.6206L73.6895 18.5541L71.8485 17.5798L69.9577 16.7013L68.0224 15.9202L66.048 15.2388L64.0394 14.6591L62.0024 14.1826L59.9426 13.8105L57.866 13.5441L55.7774 13.3838L53.6834 13.3305V0.334338Z" fill="var(--fill-0, #F3982E)"/>
<path d="M53.6834 0.334338L56.4754 0.405384L59.2598 0.618954L62.029 0.974182L64.7752 1.4702L67.4911 2.10571L70.1693 2.87855L72.8021 3.78698L75.3824 4.82884L77.9036 6.00023L80.3582 7.29898L82.7398 8.72119L85.0414 10.2625L87.2571 11.9191L89.3813 13.687L91.4073 15.5602L93.3297 17.5343L95.144 19.6042L96.8441 21.7633L98.4259 24.006L99.8854 26.3266L101.218 28.7184L102.42 31.1751L103.49 33.6894L104.422 36.2548L105.215 38.8645L105.867 41.5109L106.376 44.1868L106.741 46.8853L106.96 49.5984L107.033 52.319L106.96 55.0395L106.741 57.7526L106.376 60.4511L105.867 63.127L105.215 65.7734L104.422 68.3831L103.49 70.9485L102.42 73.4628L101.218 75.9195L99.8854 78.3113L88.3348 71.8132L89.3347 70.0193L90.2363 68.1769L91.0378 66.2911L91.7372 64.3673L92.332 62.41L92.8211 60.4251L93.2029 58.4181L93.4764 56.3946L93.6409 54.3594L93.6955 52.319L93.6409 50.2786L93.4764 48.2434L93.2029 46.2199L92.8211 44.2128L92.332 42.2279L91.7372 40.2707L91.0378 38.3468L90.2363 36.461L89.3347 34.6186L88.3348 32.8247L87.2403 31.0841L86.0541 29.402L84.7786 27.7827L83.4182 26.2305L81.9764 24.7498L80.4569 23.3449L78.8639 22.0193L77.2021 20.7764L75.4758 19.6206L73.6895 18.5541L71.8485 17.5798L69.9577 16.7013L68.0224 15.9202L66.048 15.2388L64.0394 14.6591L62.0024 14.1826L59.9426 13.8105L57.866 13.5441L55.7774 13.3838L53.6834 13.3305V0.334338Z" fill="url(#paint0_linear_638_7971)" fill-opacity="0.24"/>
<path d="M53.6834 0.334338L56.4754 0.405384L59.2598 0.618954L62.029 0.974182L64.7752 1.4702L67.4911 2.10571L70.1693 2.87855L72.8021 3.78698L75.3824 4.82884L77.9036 6.00023L80.3582 7.29898L82.7398 8.72119L85.0414 10.2625L87.2571 11.9191L89.3813 13.687L91.4073 15.5602L93.3297 17.5343L95.144 19.6042L96.8441 21.7633L98.4259 24.006L99.8854 26.3266L101.218 28.7184L102.42 31.1751L103.49 33.6894L104.422 36.2548L105.215 38.8645L105.867 41.5109L106.376 44.1868L106.741 46.8853L106.96 49.5984L107.033 52.319L106.96 55.0395L106.741 57.7526L106.376 60.4511L105.867 63.127L105.215 65.7734L104.422 68.3831L103.49 70.9485L102.42 73.4628L101.218 75.9195L99.8854 78.3113L88.3348 71.8132L89.3347 70.0193L90.2363 68.1769L91.0378 66.2911L91.7372 64.3673L92.332 62.41L92.8211 60.4251L93.2029 58.4181L93.4764 56.3946L93.6409 54.3594L93.6955 52.319L93.6409 50.2786L93.4764 48.2434L93.2029 46.2199L92.8211 44.2128L92.332 42.2279L91.7372 40.2707L91.0378 38.3468L90.2363 36.461L89.3347 34.6186L88.3348 32.8247L87.2403 31.0841L86.0541 29.402L84.7786 27.7827L83.4182 26.2305L81.9764 24.7498L80.4569 23.3449L78.8639 22.0193L77.2021 20.7764L75.4758 19.6206L73.6895 18.5541L71.8485 17.5798L69.9577 16.7013L68.0224 15.9202L66.048 15.2388L64.0394 14.6591L62.0024 14.1826L59.9426 13.8105L57.866 13.5441L55.7774 13.3838L53.6834 13.3305V0.334338Z" stroke="var(--stroke-0, white)" stroke-width="0.651877"/>
</g>
<g id="Sales: 25 (26.0%)">
<path d="M99.9198 78.4135L98.4988 80.7018L96.9606 82.9157L95.3098 85.0492L93.5501 87.0965L91.6871 89.0529L89.7247 90.9126L87.6687 92.6709L85.5239 94.3238L83.2961 95.8666L80.9915 97.2947L78.6155 98.6052L76.1747 99.7942L73.6757 100.859L71.1244 101.796L68.5283 102.604L65.8931 103.279L63.2268 103.822L60.5353 104.229L57.8269 104.5L55.1074 104.634L52.3848 104.632L49.6657 104.492L46.9573 104.215L44.2671 103.803L41.6017 103.255L38.9683 102.574L36.3735 101.761L33.8244 100.819L31.3272 99.7487L28.8891 98.5549L26.5157 97.2396L24.2143 95.8066L31.6108 84.8992L33.3371 85.974L35.1167 86.9605L36.9455 87.8561L38.8183 88.658L40.7301 89.3651L42.6761 89.9747L44.6514 90.4854L46.6502 90.896L48.6681 91.2056L50.6993 91.4129L52.7385 91.5178L54.7808 91.52L56.8199 91.419L58.8516 91.2157L60.8699 90.9104L62.87 90.5038L64.8462 89.997L66.7935 89.3913L68.7067 88.6882L70.5812 87.8897L72.4118 86.9981L74.1936 86.0151L75.9222 84.9438L77.593 83.7872L79.2017 82.5475L80.7439 81.2287L82.2155 79.8338L83.6129 78.3667L84.9323 76.831L86.1705 75.231L87.3239 73.5706L88.3898 71.8543L99.9198 78.4135Z" fill="var(--fill-0, #05D9C2)"/>
<path d="M99.9198 78.4135L98.4988 80.7018L96.9606 82.9157L95.3098 85.0492L93.5501 87.0965L91.6871 89.0529L89.7247 90.9126L87.6687 92.6709L85.5239 94.3238L83.2961 95.8666L80.9915 97.2947L78.6155 98.6052L76.1747 99.7942L73.6757 100.859L71.1244 101.796L68.5283 102.604L65.8931 103.279L63.2268 103.822L60.5353 104.229L57.8269 104.5L55.1074 104.634L52.3848 104.632L49.6657 104.492L46.9573 104.215L44.2671 103.803L41.6017 103.255L38.9683 102.574L36.3735 101.761L33.8244 100.819L31.3272 99.7487L28.8891 98.5549L26.5157 97.2396L24.2143 95.8066L31.6108 84.8992L33.3371 85.974L35.1167 86.9605L36.9455 87.8561L38.8183 88.658L40.7301 89.3651L42.6761 89.9747L44.6514 90.4854L46.6502 90.896L48.6681 91.2056L50.6993 91.4129L52.7385 91.5178L54.7808 91.52L56.8199 91.419L58.8516 91.2157L60.8699 90.9104L62.87 90.5038L64.8462 89.997L66.7935 89.3913L68.7067 88.6882L70.5812 87.8897L72.4118 86.9981L74.1936 86.0151L75.9222 84.9438L77.593 83.7872L79.2017 82.5475L80.7439 81.2287L82.2155 79.8338L83.6129 78.3667L84.9323 76.831L86.1705 75.231L87.3239 73.5706L88.3898 71.8543L99.9198 78.4135Z" fill="url(#paint1_linear_638_7971)" fill-opacity="0.24"/>
<path d="M99.9198 78.4135L98.4988 80.7018L96.9606 82.9157L95.3098 85.0492L93.5501 87.0965L91.6871 89.0529L89.7247 90.9126L87.6687 92.6709L85.5239 94.3238L83.2961 95.8666L80.9915 97.2947L78.6155 98.6052L76.1747 99.7942L73.6757 100.859L71.1244 101.796L68.5283 102.604L65.8931 103.279L63.2268 103.822L60.5353 104.229L57.8269 104.5L55.1074 104.634L52.3848 104.632L49.6657 104.492L46.9573 104.215L44.2671 103.803L41.6017 103.255L38.9683 102.574L36.3735 101.761L33.8244 100.819L31.3272 99.7487L28.8891 98.5549L26.5157 97.2396L24.2143 95.8066L31.6108 84.8992L33.3371 85.974L35.1167 86.9605L36.9455 87.8561L38.8183 88.658L40.7301 89.3651L42.6761 89.9747L44.6514 90.4854L46.6502 90.896L48.6681 91.2056L50.6993 91.4129L52.7385 91.5178L54.7808 91.52L56.8199 91.419L58.8516 91.2157L60.8699 90.9104L62.87 90.5038L64.8462 89.997L66.7935 89.3913L68.7067 88.6882L70.5812 87.8897L72.4118 86.9981L74.1936 86.0151L75.9222 84.9438L77.593 83.7872L79.2017 82.5475L80.7439 81.2287L82.2155 79.8338L83.6129 78.3667L84.9323 76.831L86.1705 75.231L87.3239 73.5706L88.3898 71.8543L99.9198 78.4135Z" stroke="var(--stroke-0, white)" stroke-width="0.651877"/>
</g>
<g id="Support: 15 (15.6%)">
<path d="M23.9481 95.6951L21.8157 94.2265L19.7599 92.6571L17.7852 90.991L15.8963 89.2323L14.0982 87.3848L12.3949 85.4533L10.7903 83.4426L9.28885 81.3569L7.89368 79.202L6.60787 76.9829L5.43541 74.7045L4.37852 72.3724L3.44029 69.9927L2.62205 67.5705L1.92645 65.1124L1.35528 62.6235L0.909408 60.1104L0.59017 57.5787L0.39845 55.0348L0.334248 52.4849H13.6174L13.6652 54.3974L13.8091 56.3055L14.0486 58.2041L14.3829 60.0888L14.8115 61.9553L15.3331 63.7993L15.9468 65.6156L16.6508 67.4008L17.4434 69.1495L18.3227 70.8584L19.2866 72.5227L20.3333 74.1389L21.4593 75.7032L22.6628 77.2111L23.9401 78.6598L25.2888 80.0456L26.7057 81.3647L28.1868 82.6141L29.7285 83.7912L31.3278 84.8925L23.9481 95.6951Z" fill="var(--fill-0, #275AC2)"/>
<path d="M23.9481 95.6951L21.8157 94.2265L19.7599 92.6571L17.7852 90.991L15.8963 89.2323L14.0982 87.3848L12.3949 85.4533L10.7903 83.4426L9.28885 81.3569L7.89368 79.202L6.60787 76.9829L5.43541 74.7045L4.37852 72.3724L3.44029 69.9927L2.62205 67.5705L1.92645 65.1124L1.35528 62.6235L0.909408 60.1104L0.59017 57.5787L0.39845 55.0348L0.334248 52.4849H13.6174L13.6652 54.3974L13.8091 56.3055L14.0486 58.2041L14.3829 60.0888L14.8115 61.9553L15.3331 63.7993L15.9468 65.6156L16.6508 67.4008L17.4434 69.1495L18.3227 70.8584L19.2866 72.5227L20.3333 74.1389L21.4593 75.7032L22.6628 77.2111L23.9401 78.6598L25.2888 80.0456L26.7057 81.3647L28.1868 82.6141L29.7285 83.7912L31.3278 84.8925L23.9481 95.6951Z" fill="url(#paint2_linear_638_7971)" fill-opacity="0.24"/>
<path d="M23.9481 95.6951L21.8157 94.2265L19.7599 92.6571L17.7852 90.991L15.8963 89.2323L14.0982 87.3848L12.3949 85.4533L10.7903 83.4426L9.28885 81.3569L7.89368 79.202L6.60787 76.9829L5.43541 74.7045L4.37852 72.3724L3.44029 69.9927L2.62205 67.5705L1.92645 65.1124L1.35528 62.6235L0.909408 60.1104L0.59017 57.5787L0.39845 55.0348L0.334248 52.4849H13.6174L13.6652 54.3974L13.8091 56.3055L14.0486 58.2041L14.3829 60.0888L14.8115 61.9553L15.3331 63.7993L15.9468 65.6156L16.6508 67.4008L17.4434 69.1495L18.3227 70.8584L19.2866 72.5227L20.3333 74.1389L21.4593 75.7032L22.6628 77.2111L23.9401 78.6598L25.2888 80.0456L26.7057 81.3647L28.1868 82.6141L29.7285 83.7912L31.3278 84.8925L23.9481 95.6951Z" stroke="var(--stroke-0, white)" stroke-width="0.651877"/>
</g>
<g id="Item 4: 12 (12.5%)">
<path d="M0.334248 52.485L0.37533 50.4445L0.497692 48.407L0.701776 46.3759L0.986698 44.354L1.3529 42.3447L1.79906 40.3514L2.32429 38.3762L2.92859 36.4232L3.61063 34.4948L4.3691 32.5942L5.20354 30.7243L6.11176 28.8878L7.09286 27.0877L8.14553 25.3269L9.26799 23.6082L10.458 21.9337L11.7143 20.3064L13.0347 18.7284L14.4173 17.2029L15.8601 15.7315L25.2307 24.9198L24.1489 26.0234L23.1117 27.1678L22.1213 28.3511L21.1791 29.5713L20.2867 30.8274L19.4448 32.1165L18.6554 33.4371L17.9195 34.7872L17.2383 36.1646L16.6128 37.5667L16.0438 38.9922L15.5323 40.4384L15.0791 41.9033L14.685 43.3847L14.3502 44.8799L14.0759 46.3868L13.8621 47.9032L13.7088 49.4266L13.6169 50.9547L13.5864 52.485H0.334248Z" fill="var(--fill-0, #D32F2F)"/>
<path d="M0.334248 52.485L0.37533 50.4445L0.497692 48.407L0.701776 46.3759L0.986698 44.354L1.3529 42.3447L1.79906 40.3514L2.32429 38.3762L2.92859 36.4232L3.61063 34.4948L4.3691 32.5942L5.20354 30.7243L6.11176 28.8878L7.09286 27.0877L8.14553 25.3269L9.26799 23.6082L10.458 21.9337L11.7143 20.3064L13.0347 18.7284L14.4173 17.2029L15.8601 15.7315L25.2307 24.9198L24.1489 26.0234L23.1117 27.1678L22.1213 28.3511L21.1791 29.5713L20.2867 30.8274L19.4448 32.1165L18.6554 33.4371L17.9195 34.7872L17.2383 36.1646L16.6128 37.5667L16.0438 38.9922L15.5323 40.4384L15.0791 41.9033L14.685 43.3847L14.3502 44.8799L14.0759 46.3868L13.8621 47.9032L13.7088 49.4266L13.6169 50.9547L13.5864 52.485H0.334248Z" fill="url(#paint3_linear_638_7971)" fill-opacity="0.24"/>
<path d="M0.334248 52.485L0.37533 50.4445L0.497692 48.407L0.701776 46.3759L0.986698 44.354L1.3529 42.3447L1.79906 40.3514L2.32429 38.3762L2.92859 36.4232L3.61063 34.4948L4.3691 32.5942L5.20354 30.7243L6.11176 28.8878L7.09286 27.0877L8.14553 25.3269L9.26799 23.6082L10.458 21.9337L11.7143 20.3064L13.0347 18.7284L14.4173 17.2029L15.8601 15.7315L25.2307 24.9198L24.1489 26.0234L23.1117 27.1678L22.1213 28.3511L21.1791 29.5713L20.2867 30.8274L19.4448 32.1165L18.6554 33.4371L17.9195 34.7872L17.2383 36.1646L16.6128 37.5667L16.0438 38.9922L15.5323 40.4384L15.0791 41.9033L14.685 43.3847L14.3502 44.8799L14.0759 46.3868L13.8621 47.9032L13.7088 49.4266L13.6169 50.9547L13.5864 52.485H0.334248Z" stroke="var(--stroke-0, white)" stroke-width="0.651877"/>
</g>
<g id="Item 5: 8 (8.3%)">
<path d="M16.0853 15.6012L17.0882 14.6639L18.1164 13.7523L19.1691 12.8664L20.246 12.0074L21.3455 11.1762L22.4673 10.3723L23.6106 9.59712L24.7747 8.85099L25.959 8.13393L27.1623 7.44724L28.384 6.7909L29.6231 6.16535L30.879 5.57144L32.1506 5.00917L33.4369 4.47855L34.7375 3.98084L36.051 3.51606L37.3769 3.08421L38.714 2.68613L40.0618 2.3214L43.5222 14.7118L42.5118 14.9851L41.5086 15.2839L40.5142 15.6076L39.5292 15.9565L38.5536 16.3298L37.5891 16.7275L36.6353 17.149L35.6935 17.5946L34.7642 18.0636L33.8479 18.5562L32.9453 19.071L32.057 19.6089L31.1839 20.1686L30.3264 20.7497L29.4849 21.3526L28.6603 21.9764L27.8532 22.6204L27.0634 23.2848L26.2923 23.9685L25.54 24.6715L16.0853 15.6012Z" fill="var(--fill-0, #111111)"/>
<path d="M16.0853 15.6012L17.0882 14.6639L18.1164 13.7523L19.1691 12.8664L20.246 12.0074L21.3455 11.1762L22.4673 10.3723L23.6106 9.59712L24.7747 8.85099L25.959 8.13393L27.1623 7.44724L28.384 6.7909L29.6231 6.16535L30.879 5.57144L32.1506 5.00917L33.4369 4.47855L34.7375 3.98084L36.051 3.51606L37.3769 3.08421L38.714 2.68613L40.0618 2.3214L43.5222 14.7118L42.5118 14.9851L41.5086 15.2839L40.5142 15.6076L39.5292 15.9565L38.5536 16.3298L37.5891 16.7275L36.6353 17.149L35.6935 17.5946L34.7642 18.0636L33.8479 18.5562L32.9453 19.071L32.057 19.6089L31.1839 20.1686L30.3264 20.7497L29.4849 21.3526L28.6603 21.9764L27.8532 22.6204L27.0634 23.2848L26.2923 23.9685L25.54 24.6715L16.0853 15.6012Z" fill="url(#paint4_linear_638_7971)" fill-opacity="0.24"/>
<path d="M16.0853 15.6012L17.0882 14.6639L18.1164 13.7523L19.1691 12.8664L20.246 12.0074L21.3455 11.1762L22.4673 10.3723L23.6106 9.59712L24.7747 8.85099L25.959 8.13393L27.1623 7.44724L28.384 6.7909L29.6231 6.16535L30.879 5.57144L32.1506 5.00917L33.4369 4.47855L34.7375 3.98084L36.051 3.51606L37.3769 3.08421L38.714 2.68613L40.0618 2.3214L43.5222 14.7118L42.5118 14.9851L41.5086 15.2839L40.5142 15.6076L39.5292 15.9565L38.5536 16.3298L37.5891 16.7275L36.6353 17.149L35.6935 17.5946L34.7642 18.0636L33.8479 18.5562L32.9453 19.071L32.057 19.6089L31.1839 20.1686L30.3264 20.7497L29.4849 21.3526L28.6603 21.9764L27.8532 22.6204L27.0634 23.2848L26.2923 23.9685L25.54 24.6715L16.0853 15.6012Z" stroke="var(--stroke-0, white)" stroke-width="0.651877"/>
</g>
<g id="Item 6: 4 (4.2%)">
<path d="M39.9654 2.11543L40.6367 1.94251L41.3103 1.77873L41.9857 1.62322L42.6637 1.47643L43.3431 1.33879L44.0246 1.20942L44.7075 1.0892L45.3921 0.977692L46.0781 0.875331L46.7654 0.781681L47.454 0.696742L48.1435 0.620515L48.8339 0.553436L49.5252 0.495503L50.2173 0.446283L50.9099 0.405774L51.6029 0.374847L52.2964 0.352197L52.9899 0.338694L53.6838 0.334338V13.4018L53.1635 13.4053L52.6432 13.4153L52.1233 13.4318L51.6034 13.4554L51.0839 13.4859L50.5649 13.5224L50.0464 13.5664L49.5283 13.6165L49.0115 13.6736L48.4951 13.7372L47.9796 13.8073L47.4651 13.8844L46.9518 13.968L46.4394 14.0582L45.9284 14.1549L45.4186 14.2586L44.9102 14.3683L44.4036 14.4851L43.8983 14.6079L43.3948 14.7377L39.9654 2.11543Z" fill="var(--fill-0, #5C7FC6)"/>
<path d="M39.9654 2.11543L40.6367 1.94251L41.3103 1.77873L41.9857 1.62322L42.6637 1.47643L43.3431 1.33879L44.0246 1.20942L44.7075 1.0892L45.3921 0.977692L46.0781 0.875331L46.7654 0.781681L47.454 0.696742L48.1435 0.620515L48.8339 0.553436L49.5252 0.495503L50.2173 0.446283L50.9099 0.405774L51.6029 0.374847L52.2964 0.352197L52.9899 0.338694L53.6838 0.334338V13.4018L53.1635 13.4053L52.6432 13.4153L52.1233 13.4318L51.6034 13.4554L51.0839 13.4859L50.5649 13.5224L50.0464 13.5664L49.5283 13.6165L49.0115 13.6736L48.4951 13.7372L47.9796 13.8073L47.4651 13.8844L46.9518 13.968L46.4394 14.0582L45.9284 14.1549L45.4186 14.2586L44.9102 14.3683L44.4036 14.4851L43.8983 14.6079L43.3948 14.7377L39.9654 2.11543Z" fill="url(#paint5_linear_638_7971)" fill-opacity="0.24"/>
<path d="M39.9654 2.11543L40.6367 1.94251L41.3103 1.77873L41.9857 1.62322L42.6637 1.47643L43.3431 1.33879L44.0246 1.20942L44.7075 1.0892L45.3921 0.977692L46.0781 0.875331L46.7654 0.781681L47.454 0.696742L48.1435 0.620515L48.8339 0.553436L49.5252 0.495503L50.2173 0.446283L50.9099 0.405774L51.6029 0.374847L52.2964 0.352197L52.9899 0.338694L53.6838 0.334338V13.4018L53.1635 13.4053L52.6432 13.4153L52.1233 13.4318L51.6034 13.4554L51.0839 13.4859L50.5649 13.5224L50.0464 13.5664L49.5283 13.6165L49.0115 13.6736L48.4951 13.7372L47.9796 13.8073L47.4651 13.8844L46.9518 13.968L46.4394 14.0582L45.9284 14.1549L45.4186 14.2586L44.9102 14.3683L44.4036 14.4851L43.8983 14.6079L43.3948 14.7377L39.9654 2.11543Z" stroke="var(--stroke-0, white)" stroke-width="0.651877"/>
</g>
</g>
<defs>
<linearGradient id="paint0_linear_638_7971" x1="80.3582" y1="78.3113" x2="80.3582" y2="0.334338" gradientUnits="userSpaceOnUse">
<stop stop-color="white" stop-opacity="0"/>
<stop offset="1" stop-color="white"/>
</linearGradient>
<linearGradient id="paint1_linear_638_7971" x1="62.067" y1="104.634" x2="62.067" y2="71.8543" gradientUnits="userSpaceOnUse">
<stop stop-color="white" stop-opacity="0"/>
<stop offset="1" stop-color="white"/>
</linearGradient>
<linearGradient id="paint2_linear_638_7971" x1="15.831" y1="95.6951" x2="15.831" y2="52.4849" gradientUnits="userSpaceOnUse">
<stop stop-color="white" stop-opacity="0"/>
<stop offset="1" stop-color="white"/>
</linearGradient>
<linearGradient id="paint3_linear_638_7971" x1="12.7825" y1="52.485" x2="12.7825" y2="15.7315" gradientUnits="userSpaceOnUse">
<stop stop-color="white" stop-opacity="0"/>
<stop offset="1" stop-color="white"/>
</linearGradient>
<linearGradient id="paint4_linear_638_7971" x1="29.8038" y1="24.6715" x2="29.8038" y2="2.3214" gradientUnits="userSpaceOnUse">
<stop stop-color="white" stop-opacity="0"/>
<stop offset="1" stop-color="white"/>
</linearGradient>
<linearGradient id="paint5_linear_638_7971" x1="46.8246" y1="14.7377" x2="46.8246" y2="0.334338" gradientUnits="userSpaceOnUse">
<stop stop-color="white" stop-opacity="0"/>
<stop offset="1" stop-color="white"/>
</linearGradient>
</defs>
</svg>
