<svg width="19" height="19" viewBox="0 0 19 19" fill="none" xmlns="http://www.w3.org/2000/svg">
<path d="M4.17137 14.3096C4.37221 14.3893 4.53694 14.3425 4.6845 14.1816C4.80788 14.0472 4.95154 13.9321 5.08007 13.802C5.14312 13.7379 5.17939 13.7385 5.24674 13.8011C6.0306 14.5268 6.94007 15.0256 7.98721 15.254C9.68194 15.6234 11.2749 15.357 12.7275 14.3826C14.1893 13.402 15.0679 12.0321 15.3782 10.3007C15.3977 10.1915 15.3734 10.1631 15.2635 10.153C14.6962 10.1003 14.1299 10.0406 13.5638 9.97605C13.463 9.96456 13.4323 9.98685 13.4128 10.0883C12.8628 12.9287 9.66504 14.3424 7.21231 12.8322C7.02173 12.7146 6.84665 12.5768 6.67271 12.4364C6.60355 12.3807 6.61754 12.35 6.67381 12.2985C6.87052 12.1174 7.0626 11.9319 7.25777 11.7492C7.36849 11.6452 7.40098 11.5191 7.35633 11.3787C7.31118 11.2372 7.2074 11.1547 7.05846 11.1404C6.00816 11.0401 4.95756 10.9412 3.89694 10.8409C3.91738 11.4108 3.93805 11.9739 3.95819 12.537C3.9747 12.985 3.99015 13.433 4.00825 13.881C4.01225 13.9767 4.02687 14.0717 4.03644 14.1672L4.17084 14.3096L4.17137 14.3096Z" fill="#2CA8FC"/>
<path d="M15.2655 8.25425C15.2264 7.18803 15.1883 6.13374 15.1483 5.07915C15.1426 4.93069 15.067 4.82103 14.9272 4.76886C14.7893 4.71752 14.6616 4.74271 14.5516 4.84701C14.3988 4.99236 14.2402 5.13228 14.0933 5.28334C14.0179 5.36067 13.9781 5.3536 13.9089 5.27588C13.2237 4.50681 12.3978 3.93875 11.4178 3.61665C9.52688 2.99561 7.71955 3.19769 6.04989 4.3119C4.46256 5.37145 3.57301 6.87434 3.35038 8.76816C3.33636 8.88806 3.36044 8.92123 3.48459 8.93223C4.05198 8.98275 4.61818 9.04516 5.18437 9.1081C5.27438 9.118 5.30018 9.09877 5.30909 9.00523C5.60592 5.94389 8.94255 4.2642 11.5646 5.85461C11.9178 6.06884 12.222 6.34013 12.498 6.64675C12.5609 6.71663 12.5397 6.74948 12.4823 6.8021C12.299 6.97001 12.1224 7.14497 11.9386 7.31181C11.8122 7.42656 11.7517 7.55803 11.8095 7.72393C11.8655 7.88449 11.9919 7.94666 12.1543 7.96152C13.1865 8.05739 14.2181 8.15536 15.2657 8.25399L15.2655 8.25425Z" fill="#2CA8FC"/>
</svg>
