<svg preserveAspectRatio="none" width="100%" height="100%" overflow="visible" style="display: block;" viewBox="0 0 9.79197 9.77816" fill="none" xmlns="http://www.w3.org/2000/svg">
<g id="Group">
<path id="Vector" d="M5.33046 0C2.87039 0 0.868942 1.9986 0.868942 4.45521C0.868942 5.51786 1.24364 6.49466 1.8678 7.26124L0 9.12638L0.652696 9.77816L2.52049 7.91299C3.28811 8.53625 4.2663 8.91044 5.33045 8.91044C7.79054 8.91044 9.79197 6.91182 9.79197 4.45521C9.79197 1.9986 7.79054 0 5.33046 0ZM5.33046 7.98866C3.37938 7.98866 1.79203 6.40355 1.79203 4.45521C1.79203 2.50688 3.37936 0.921763 5.33046 0.921763C7.28157 0.921763 8.8689 2.50688 8.8689 4.45521C8.8689 6.40355 7.28155 7.98866 5.33046 7.98866Z" fill="var(--fill-0, #727272)"/>
</g>
</svg>
