<svg preserveAspectRatio="none" width="100%" height="100%" overflow="visible" style="display: block;" viewBox="0 0 17.6007 19.5563" fill="none" xmlns="http://www.w3.org/2000/svg">
<g id="Vector">
<path d="M17.5989 7.52283C17.1906 12.3975 12.5856 12.4892 15.0514 18.517C15.149 18.7561 15.1244 19.0074 14.9819 19.2229C14.8405 19.4383 14.6197 19.5563 14.3633 19.5563H6.61493C6.26672 19.5563 5.97295 19.3237 5.89166 18.9826L5.47577 17.2534C2.74301 17.8153 0.803075 17.7213 1.90064 15.1194C1.23409 14.8898 1.01556 14.1969 1.7634 13.8895C1.38418 13.7779 0.756949 13.2638 1.43107 12.6767C0.7785 12.6584 -0.61813 12.6473 0.307789 11.1347C1.79213 9.2096 1.80385 8.39104 1.80083 7.48808C1.7997 7.3689 1.84166 7.26615 1.92522 7.18174C2.00764 7.09847 2.10972 7.05493 2.22655 7.05493H3.08706V4.95449C2.91012 4.84639 2.79216 4.65121 2.79216 4.42699C2.79216 4.08819 3.06438 3.81432 3.39973 3.81432C3.73509 3.81432 4.00617 4.08819 4.00617 4.42699C4.00617 4.65121 3.88821 4.84601 3.71127 4.95334V7.05493H5.04779V2.64092C4.87084 2.53359 4.75213 2.33764 4.75213 2.11457C4.75213 1.77576 5.02435 1.50075 5.3597 1.50075C5.69506 1.50075 5.96728 1.77576 5.96728 2.11457C5.96728 2.33764 5.84818 2.53359 5.67162 2.64092V7.05531H6.44631V9.19699C6.44631 9.82839 6.95634 10.3437 7.58017 10.3437H11.82C12.4449 10.3437 12.955 9.82839 12.955 9.19699V7.05531H13.7289V2.64092C13.552 2.53359 13.434 2.33764 13.434 2.11457C13.434 1.77576 13.7062 1.50075 14.0416 1.50075C14.3769 1.50075 14.648 1.77576 14.648 2.11457C14.648 2.33764 14.53 2.53359 14.3531 2.64092V7.05531H15.6896V4.95373C15.5127 4.84639 15.394 4.65159 15.394 4.42738C15.394 4.08857 15.6662 3.8147 16.0015 3.8147C16.3369 3.8147 16.6091 4.08857 16.6091 4.42738C16.6091 4.65159 16.49 4.84639 16.3135 4.95487V7.05531H17.174C17.2984 7.05531 17.4042 7.10305 17.4882 7.19511C17.5721 7.28678 17.6095 7.39831 17.5989 7.52283ZM9.25431 6.79748L9.04523 7.28487H9.46339L9.25431 6.79748ZM7.07014 9.19699V4.91362C7.07014 4.63096 7.29964 4.39835 7.58017 4.39835H8.07205V1.14017C7.89511 1.03284 7.77715 0.836889 7.77715 0.613821C7.77715 0.275016 8.04937 0 8.38473 0C8.72008 0 8.99117 0.275016 8.99117 0.613821C8.99117 0.836889 8.87321 1.03284 8.69627 1.14017V4.39796H10.7035V1.14017C10.5266 1.03284 10.4078 0.836889 10.4078 0.613821C10.4078 0.275016 10.6801 0 11.0154 0C11.3508 0 11.623 0.275016 11.623 0.613821C11.623 0.836889 11.5039 1.03284 11.3273 1.14017V4.39796H11.8192C12.1001 4.39796 12.3292 4.63058 12.3292 4.91324V9.19661C12.3292 9.48041 12.0997 9.71303 11.8192 9.71303H7.58055C7.29964 9.71341 7.07014 9.48041 7.07014 9.19699ZM10.7334 8.10457C10.7334 8.27875 10.8729 8.41969 11.0453 8.41969C11.2177 8.41969 11.3572 8.27875 11.3572 8.10457V6.00719C11.3572 5.83301 11.2177 5.69207 11.0453 5.69207C10.8729 5.69207 10.7334 5.83301 10.7334 6.00719V8.10457ZM8.23312 8.39257C8.39078 8.46094 8.57301 8.38837 8.64144 8.22909L8.77528 7.91626H9.73334L9.86718 8.22909C9.93561 8.38837 10.1178 8.46094 10.2755 8.39257C10.4343 8.32344 10.5058 8.13933 10.4385 7.98005L9.53938 5.88267C9.50952 5.81239 9.45356 5.75165 9.37757 5.71919C9.21991 5.65005 9.03692 5.72339 8.96924 5.88267L8.07016 7.98005C8.00249 8.13895 8.07546 8.32305 8.23312 8.39257Z" fill="var(--fill-0, #01D9C1)"/>
<path d="M17.5989 7.52283C17.1906 12.3975 12.5856 12.4892 15.0514 18.517C15.149 18.7561 15.1244 19.0074 14.9819 19.2229C14.8405 19.4383 14.6197 19.5563 14.3633 19.5563H6.61493C6.26672 19.5563 5.97295 19.3237 5.89166 18.9826L5.47577 17.2534C2.74301 17.8153 0.803075 17.7213 1.90064 15.1194C1.23409 14.8898 1.01556 14.1969 1.7634 13.8895C1.38418 13.7779 0.756949 13.2638 1.43107 12.6767C0.7785 12.6584 -0.61813 12.6473 0.307789 11.1347C1.79213 9.2096 1.80385 8.39104 1.80083 7.48808C1.7997 7.3689 1.84166 7.26615 1.92522 7.18174C2.00764 7.09847 2.10972 7.05493 2.22655 7.05493H3.08706V4.95449C2.91012 4.84639 2.79216 4.65121 2.79216 4.42699C2.79216 4.08819 3.06438 3.81432 3.39973 3.81432C3.73509 3.81432 4.00617 4.08819 4.00617 4.42699C4.00617 4.65121 3.88821 4.84601 3.71127 4.95334V7.05493H5.04779V2.64092C4.87084 2.53359 4.75213 2.33764 4.75213 2.11457C4.75213 1.77576 5.02435 1.50075 5.3597 1.50075C5.69506 1.50075 5.96728 1.77576 5.96728 2.11457C5.96728 2.33764 5.84818 2.53359 5.67162 2.64092V7.05531H6.44631V9.19699C6.44631 9.82839 6.95634 10.3437 7.58017 10.3437H11.82C12.4449 10.3437 12.955 9.82839 12.955 9.19699V7.05531H13.7289V2.64092C13.552 2.53359 13.434 2.33764 13.434 2.11457C13.434 1.77576 13.7062 1.50075 14.0416 1.50075C14.3769 1.50075 14.648 1.77576 14.648 2.11457C14.648 2.33764 14.53 2.53359 14.3531 2.64092V7.05531H15.6896V4.95373C15.5127 4.84639 15.394 4.65159 15.394 4.42738C15.394 4.08857 15.6662 3.8147 16.0015 3.8147C16.3369 3.8147 16.6091 4.08857 16.6091 4.42738C16.6091 4.65159 16.49 4.84639 16.3135 4.95487V7.05531H17.174C17.2984 7.05531 17.4042 7.10305 17.4882 7.19511C17.5721 7.28678 17.6095 7.39831 17.5989 7.52283ZM9.25431 6.79748L9.04523 7.28487H9.46339L9.25431 6.79748ZM7.07014 9.19699V4.91362C7.07014 4.63096 7.29964 4.39835 7.58017 4.39835H8.07205V1.14017C7.89511 1.03284 7.77715 0.836889 7.77715 0.613821C7.77715 0.275016 8.04937 0 8.38473 0C8.72008 0 8.99117 0.275016 8.99117 0.613821C8.99117 0.836889 8.87321 1.03284 8.69627 1.14017V4.39796H10.7035V1.14017C10.5266 1.03284 10.4078 0.836889 10.4078 0.613821C10.4078 0.275016 10.6801 0 11.0154 0C11.3508 0 11.623 0.275016 11.623 0.613821C11.623 0.836889 11.5039 1.03284 11.3273 1.14017V4.39796H11.8192C12.1001 4.39796 12.3292 4.63058 12.3292 4.91324V9.19661C12.3292 9.48041 12.0997 9.71303 11.8192 9.71303H7.58055C7.29964 9.71341 7.07014 9.48041 7.07014 9.19699ZM10.7334 8.10457C10.7334 8.27875 10.8729 8.41969 11.0453 8.41969C11.2177 8.41969 11.3572 8.27875 11.3572 8.10457V6.00719C11.3572 5.83301 11.2177 5.69207 11.0453 5.69207C10.8729 5.69207 10.7334 5.83301 10.7334 6.00719V8.10457ZM8.23312 8.39257C8.39078 8.46094 8.57301 8.38837 8.64144 8.22909L8.77528 7.91626H9.73334L9.86718 8.22909C9.93561 8.38837 10.1178 8.46094 10.2755 8.39257C10.4343 8.32344 10.5058 8.13933 10.4385 7.98005L9.53938 5.88267C9.50952 5.81239 9.45356 5.75165 9.37757 5.71919C9.21991 5.65005 9.03692 5.72339 8.96924 5.88267L8.07016 7.98005C8.00249 8.13895 8.07546 8.32305 8.23312 8.39257Z" fill="url(#paint0_linear_638_7979)" fill-opacity="0.24"/>
</g>
<defs>
<linearGradient id="paint0_linear_638_7979" x1="8.80034" y1="19.5563" x2="8.80034" y2="0" gradientUnits="userSpaceOnUse">
<stop stop-color="white" stop-opacity="0"/>
<stop offset="1" stop-color="white"/>
</linearGradient>
</defs>
</svg>
