<svg width="18" height="4" viewBox="0 0 18 4" fill="none" xmlns="http://www.w3.org/2000/svg">
<path d="M14.2984 0.790203C14.9178 0.715002 16.2838 0.552232 16.5248 0.865405C16.7657 1.17858 16.2527 2.4664 16.0211 3.04228C15.9519 3.21643 16.1023 3.28569 16.2586 3.15261C17.2773 2.29423 17.5449 0.501767 17.3352 0.240542C17.1254 -0.0206826 15.3384 -0.234908 14.2504 0.530462C14.0842 0.651179 14.1134 0.813456 14.2984 0.790203Z" fill="#F3982E"/>
<path d="M8.68407 3.9273C11.1974 3.93554 13.6545 3.18399 15.7332 1.7712C16.0459 1.53917 15.7738 1.18543 15.4551 1.33039C13.3753 2.20675 11.1429 2.66406 8.88592 2.67609C5.86458 2.67562 2.89588 1.88509 0.274404 0.382952C0.0601797 0.255308 -0.102096 0.475963 0.0765063 0.638239C2.43473 2.7703 5.50497 3.94348 8.68407 3.9273Z" fill="#F3982E"/>
</svg>
