<svg width="2" height="12" viewBox="0 0 2 12" fill="none" xmlns="http://www.w3.org/2000/svg">
<path d="M2 1C2 1.55 1.55 2 1 2C0.45 2 -6.30607e-07 1.55 -6.63797e-07 1C-6.96987e-07 0.45 0.449999 -1.42482e-08 1 -3.16626e-08C1.55 -4.9077e-08 2 0.45 2 1ZM2 6C2 6.55 1.55 7 1 7C0.45 7 -3.28881e-07 6.55 -3.62071e-07 6C-3.95261e-07 5.45 0.45 5 1 5C1.55 5 2 5.45 2 6ZM2 11C2 11.55 1.55 12 1 12C0.45 12 -2.71553e-08 11.55 -6.03452e-08 11C-9.3535e-08 10.45 0.45 10 1 10C1.55 10 2 10.45 2 11Z" fill="#727272"/>
</svg>
