<svg preserveAspectRatio="none" width="100%" height="100%" overflow="visible" style="display: block;" viewBox="0 0 19.4428 19.3114" fill="none" xmlns="http://www.w3.org/2000/svg">
<g id="Duble User">
<g id="Vector">
<path d="M9.71593 9.65919C12.3985 9.65919 14.5731 7.49691 14.5731 4.8296C14.5731 2.16228 12.3985 0 9.71593 0C7.03337 0 4.85874 2.16228 4.85874 4.8296C4.85874 7.49691 7.03337 9.65919 9.71593 9.65919Z" fill="var(--fill-0, #01D9C1)"/>
<path d="M9.71593 9.65919C12.3985 9.65919 14.5731 7.49691 14.5731 4.8296C14.5731 2.16228 12.3985 0 9.71593 0C7.03337 0 4.85874 2.16228 4.85874 4.8296C4.85874 7.49691 7.03337 9.65919 9.71593 9.65919Z" fill="url(#paint0_linear_638_8094)" fill-opacity="0.24"/>
</g>
<g id="Vector_2">
<path d="M17.1797 13.0052C14.8625 11.7663 12.2862 11.0903 9.6593 11.032C7.05113 11.0989 4.49472 11.7747 2.19413 13.0052C1.52689 13.3605 0.969666 13.8917 0.582897 14.5411C0.196127 15.1906 -0.00542191 15.9336 0.000110922 16.6895V17.3243C0.000110922 17.8513 0.209458 18.3567 0.582099 18.7293C0.95474 19.1019 1.46015 19.3113 1.98714 19.3113H17.4556C17.9826 19.3113 18.4881 19.1019 18.8607 18.7293C19.2333 18.3567 19.4427 17.8513 19.4427 17.3243V16.6895C19.4417 15.9265 19.2298 15.1786 18.8304 14.5284C18.4311 13.8783 17.8598 13.3511 17.1797 13.0052Z" fill="var(--fill-0, #01D9C1)"/>
<path d="M17.1797 13.0052C14.8625 11.7663 12.2862 11.0903 9.6593 11.032C7.05113 11.0989 4.49472 11.7747 2.19413 13.0052C1.52689 13.3605 0.969666 13.8917 0.582897 14.5411C0.196127 15.1906 -0.00542191 15.9336 0.000110922 16.6895V17.3243C0.000110922 17.8513 0.209458 18.3567 0.582099 18.7293C0.95474 19.1019 1.46015 19.3113 1.98714 19.3113H17.4556C17.9826 19.3113 18.4881 19.1019 18.8607 18.7293C19.2333 18.3567 19.4427 17.8513 19.4427 17.3243V16.6895C19.4417 15.9265 19.2298 15.1786 18.8304 14.5284C18.4311 13.8783 17.8598 13.3511 17.1797 13.0052Z" fill="url(#paint1_linear_638_8094)" fill-opacity="0.24"/>
</g>
</g>
<defs>
<linearGradient id="paint0_linear_638_8094" x1="9.71593" y1="9.65919" x2="9.71593" y2="0" gradientUnits="userSpaceOnUse">
<stop stop-color="white" stop-opacity="0"/>
<stop offset="1" stop-color="white"/>
</linearGradient>
<linearGradient id="paint1_linear_638_8094" x1="9.72134" y1="19.3113" x2="9.72134" y2="11.032" gradientUnits="userSpaceOnUse">
<stop stop-color="white" stop-opacity="0"/>
<stop offset="1" stop-color="white"/>
</linearGradient>
</defs>
</svg>
