<svg preserveAspectRatio="none" width="100%" height="100%" overflow="visible" style="display: block;" viewBox="0 0 14.4093 12.0958" fill="none" xmlns="http://www.w3.org/2000/svg">
<g id="Group 1991432185">
<path id="Vector" d="M14.4089 6.07615C14.3175 6.27193 14.1656 6.35099 13.9479 6.33533C13.7659 6.32227 13.5824 6.33719 13.3997 6.33085C13.3098 6.3275 13.2839 6.35285 13.2779 6.44459C13.206 7.51037 12.8872 8.49746 12.2825 9.38237C11.3038 10.8143 9.96252 11.7142 8.23735 12.0028C6.50129 12.2933 4.92202 11.9003 3.50782 10.8543C3.4187 10.7882 3.41682 10.751 3.48977 10.6682C3.86616 10.2404 4.23692 9.80824 4.60428 9.37268C4.66971 9.29511 4.70731 9.29027 4.79116 9.35068C7.14089 11.0385 10.4367 9.87126 11.1834 7.08935C11.2413 6.87306 11.2741 6.65267 11.3041 6.43116C11.3162 6.34316 11.285 6.33048 11.2086 6.3316C10.9413 6.33495 10.6743 6.33197 10.407 6.33309C10.2551 6.33346 10.1449 6.2641 10.081 6.13134C10.0167 5.99747 10.0355 5.86621 10.134 5.75359C10.8289 4.95966 11.5249 4.16648 12.2273 3.36547C12.6037 3.79394 12.9752 4.21757 13.347 4.64082C13.6426 4.97793 13.9389 5.3143 14.2333 5.65253C14.2961 5.72487 14.3506 5.80393 14.4093 5.88V6.07578L14.4089 6.07615Z" fill="var(--fill-0, #2CA8FC)"/>
<path id="Vector_2" d="M2.18489 9.28883C1.48136 8.4867 0.785356 7.69389 0.0904777 6.89959C-0.00728656 6.78772 -0.0275914 6.65608 0.0382114 6.52221C0.103262 6.3902 0.213435 6.32084 0.36497 6.32121C0.575915 6.32195 0.787236 6.31487 0.997805 6.32382C1.10572 6.32829 1.12979 6.29585 1.12678 6.19181C1.09707 5.1622 1.30764 4.1822 1.7991 3.27528C2.74778 1.52559 4.20071 0.431842 6.17968 0.0958498C8.06127 -0.223361 9.73981 0.258811 11.2018 1.48307C11.2943 1.56064 11.2995 1.60129 11.2168 1.69451C10.8389 2.12075 10.47 2.55482 10.1015 2.98926C10.0429 3.05825 10.0109 3.06198 9.94022 3.00007C7.62284 0.977782 4.04354 2.04692 3.22871 5.00335C3.11891 5.40161 3.08394 5.80771 3.09372 6.22015C3.09598 6.31412 3.13395 6.32345 3.21179 6.32233C3.46034 6.3186 3.70888 6.32457 3.95705 6.31972C4.12776 6.31636 4.262 6.37043 4.33382 6.53078C4.40338 6.68592 4.35413 6.81793 4.24621 6.94024C3.56148 7.7185 2.87864 8.49788 2.18451 9.28883H2.18489Z" fill="var(--fill-0, #2CA8FC)"/>
</g>
</svg>
