<svg preserveAspectRatio="none" width="100%" height="100%" overflow="visible" style="display: block;" viewBox="0 0 20.2006 20.1217" fill="none" xmlns="http://www.w3.org/2000/svg">
<g id="Group">
<g id="Vector">
<path d="M15.8605 16.7681C15.1995 16.7681 14.6325 17.1767 14.3979 17.7545H13.0198V18.9381H14.3979C14.6325 19.5159 15.1995 19.9245 15.8605 19.9245C16.7307 19.9245 17.4387 19.2165 17.4387 18.3463C17.4387 17.4761 16.7307 16.7681 15.8605 16.7681Z" fill="var(--fill-0, #01D9C1)"/>
<path d="M15.8605 16.7681C15.1995 16.7681 14.6325 17.1767 14.3979 17.7545H13.0198V18.9381H14.3979C14.6325 19.5159 15.1995 19.9245 15.8605 19.9245C16.7307 19.9245 17.4387 19.2165 17.4387 18.3463C17.4387 17.4761 16.7307 16.7681 15.8605 16.7681Z" fill="url(#paint0_linear_638_8053)" fill-opacity="0.24"/>
</g>
<g id="Vector_2">
<path d="M18.6223 13.4153C18.3629 13.4153 18.1182 13.4785 17.902 13.5899L16.4367 12.3688C16.3303 12.2802 16.1962 12.2316 16.0578 12.2316H13.0198V13.4153H15.8435L17.1283 14.486C17.0741 14.6453 17.0442 14.8159 17.0442 14.9934C17.0442 15.8636 17.7521 16.5716 18.6223 16.5716C19.4925 16.5716 20.2005 15.8636 20.2005 14.9934C20.2005 14.1232 19.4925 13.4153 18.6223 13.4153Z" fill="var(--fill-0, #01D9C1)"/>
<path d="M18.6223 13.4153C18.3629 13.4153 18.1182 13.4785 17.902 13.5899L16.4367 12.3688C16.3303 12.2802 16.1962 12.2316 16.0578 12.2316H13.0198V13.4153H15.8435L17.1283 14.486C17.0741 14.6453 17.0442 14.8159 17.0442 14.9934C17.0442 15.8636 17.7521 16.5716 18.6223 16.5716C19.4925 16.5716 20.2005 15.8636 20.2005 14.9934C20.2005 14.1232 19.4925 13.4153 18.6223 13.4153Z" fill="url(#paint1_linear_638_8053)" fill-opacity="0.24"/>
</g>
<g id="Vector_3">
<path d="M18.6223 8.48278C17.9613 8.48278 17.3943 8.89137 17.1597 9.46914H13.0198V10.6528H17.1597C17.3943 11.2305 17.9613 11.6391 18.6223 11.6391C19.4925 11.6391 20.2005 10.9312 20.2005 10.061C20.2005 9.19075 19.4925 8.48278 18.6223 8.48278Z" fill="var(--fill-0, #01D9C1)"/>
<path d="M18.6223 8.48278C17.9613 8.48278 17.3943 8.89137 17.1597 9.46914H13.0198V10.6528H17.1597C17.3943 11.2305 17.9613 11.6391 18.6223 11.6391C19.4925 11.6391 20.2005 10.9312 20.2005 10.061C20.2005 9.19075 19.4925 8.48278 18.6223 8.48278Z" fill="url(#paint2_linear_638_8053)" fill-opacity="0.24"/>
</g>
<g id="Vector_4">
<path d="M16.4367 7.75385L17.902 6.5327C18.1182 6.64412 18.3629 6.70741 18.6223 6.70741C19.4925 6.70741 20.2005 5.99944 20.2005 5.12924C20.2005 4.25903 19.4925 3.55106 18.6223 3.55106C17.7521 3.55106 17.0442 4.25903 17.0442 5.12924C17.0442 5.30678 17.0741 5.47734 17.1283 5.6367L15.8435 6.70741H13.0198V7.89104H16.0578C16.1962 7.89104 16.3303 7.84251 16.4367 7.75385Z" fill="var(--fill-0, #01D9C1)"/>
<path d="M16.4367 7.75385L17.902 6.5327C18.1182 6.64412 18.3629 6.70741 18.6223 6.70741C19.4925 6.70741 20.2005 5.99944 20.2005 5.12924C20.2005 4.25903 19.4925 3.55106 18.6223 3.55106C17.7521 3.55106 17.0442 4.25903 17.0442 5.12924C17.0442 5.30678 17.0741 5.47734 17.1283 5.6367L15.8435 6.70741H13.0198V7.89104H16.0578C16.1962 7.89104 16.3303 7.84251 16.4367 7.75385Z" fill="url(#paint3_linear_638_8053)" fill-opacity="0.24"/>
</g>
<g id="Vector_5">
<path d="M15.8605 3.35405C16.7307 3.35405 17.4387 2.64608 17.4387 1.77588C17.4387 0.905673 16.7307 0.197705 15.8605 0.197705C15.1995 0.197705 14.6325 0.606293 14.3979 1.18406H13.0198V2.36769H14.3979C14.6325 2.94546 15.1995 3.35405 15.8605 3.35405Z" fill="var(--fill-0, #01D9C1)"/>
<path d="M15.8605 3.35405C16.7307 3.35405 17.4387 2.64608 17.4387 1.77588C17.4387 0.905673 16.7307 0.197705 15.8605 0.197705C15.1995 0.197705 14.6325 0.606293 14.3979 1.18406H13.0198V2.36769H14.3979C14.6325 2.94546 15.1995 3.35405 15.8605 3.35405Z" fill="url(#paint4_linear_638_8053)" fill-opacity="0.24"/>
</g>
<g id="Vector_6">
<path d="M5.91816 10.0609C5.91816 12.3452 7.77658 14.2036 10.0609 14.2036C10.6959 14.2036 11.2979 14.0598 11.8363 13.8033V6.31845C11.2979 6.062 10.6959 5.91819 10.0609 5.91819C7.77658 5.91819 5.91816 7.77661 5.91816 10.0609Z" fill="var(--fill-0, #01D9C1)"/>
<path d="M5.91816 10.0609C5.91816 12.3452 7.77658 14.2036 10.0609 14.2036C10.6959 14.2036 11.2979 14.0598 11.8363 13.8033V6.31845C11.2979 6.062 10.6959 5.91819 10.0609 5.91819C7.77658 5.91819 5.91816 7.77661 5.91816 10.0609Z" fill="url(#paint5_linear_638_8053)" fill-opacity="0.24"/>
</g>
<g id="Vector_7">
<path d="M11.2445 0H8.87726C8.55042 0 8.28544 0.264975 8.28544 0.591815V1.36216C7.17492 1.58839 6.11218 2.02866 5.16555 2.65464L4.62069 2.10982C4.38957 1.8787 4.01487 1.8787 3.78375 2.10982L2.10986 3.78371C1.87873 4.01479 1.87873 4.38953 2.10986 4.62065L2.65468 5.16552C2.0287 6.11214 1.58843 7.17488 1.3622 8.2854H0.591854C0.265014 8.2854 3.91556e-05 8.55038 3.91556e-05 8.87722V11.2445C3.91556e-05 11.5713 0.265014 11.8363 0.591854 11.8363H1.3622C1.58843 12.9468 2.0287 14.0096 2.65468 14.9562L2.10982 15.5011C1.99883 15.6121 1.9365 15.7626 1.9365 15.9195C1.9365 16.0765 1.99883 16.227 2.10982 16.3379L3.78375 18.0119C4.01487 18.243 4.38957 18.243 4.62069 18.0119L5.16555 17.4671C6.11218 18.093 7.17492 18.5333 8.28544 18.7595V19.5299C8.28544 19.8567 8.55042 20.1217 8.87726 20.1217H11.2445C11.5714 20.1217 11.8363 19.8567 11.8363 19.5299V15.0825C11.2807 15.2795 10.6832 15.3872 10.0609 15.3872C7.12395 15.3872 4.73456 12.9978 4.73456 10.0608C4.73456 7.12391 7.12395 4.73452 10.0609 4.73452C10.6832 4.73452 11.2807 4.84215 11.8363 5.03918V0.591815C11.8363 0.264975 11.5714 0 11.2445 0Z" fill="var(--fill-0, #01D9C1)"/>
<path d="M11.2445 0H8.87726C8.55042 0 8.28544 0.264975 8.28544 0.591815V1.36216C7.17492 1.58839 6.11218 2.02866 5.16555 2.65464L4.62069 2.10982C4.38957 1.8787 4.01487 1.8787 3.78375 2.10982L2.10986 3.78371C1.87873 4.01479 1.87873 4.38953 2.10986 4.62065L2.65468 5.16552C2.0287 6.11214 1.58843 7.17488 1.3622 8.2854H0.591854C0.265014 8.2854 3.91556e-05 8.55038 3.91556e-05 8.87722V11.2445C3.91556e-05 11.5713 0.265014 11.8363 0.591854 11.8363H1.3622C1.58843 12.9468 2.0287 14.0096 2.65468 14.9562L2.10982 15.5011C1.99883 15.6121 1.9365 15.7626 1.9365 15.9195C1.9365 16.0765 1.99883 16.227 2.10982 16.3379L3.78375 18.0119C4.01487 18.243 4.38957 18.243 4.62069 18.0119L5.16555 17.4671C6.11218 18.093 7.17492 18.5333 8.28544 18.7595V19.5299C8.28544 19.8567 8.55042 20.1217 8.87726 20.1217H11.2445C11.5714 20.1217 11.8363 19.8567 11.8363 19.5299V15.0825C11.2807 15.2795 10.6832 15.3872 10.0609 15.3872C7.12395 15.3872 4.73456 12.9978 4.73456 10.0608C4.73456 7.12391 7.12395 4.73452 10.0609 4.73452C10.6832 4.73452 11.2807 4.84215 11.8363 5.03918V0.591815C11.8363 0.264975 11.5714 0 11.2445 0Z" fill="url(#paint6_linear_638_8053)" fill-opacity="0.24"/>
</g>
</g>
<defs>
<linearGradient id="paint0_linear_638_8053" x1="15.2293" y1="19.9245" x2="15.2293" y2="16.7681" gradientUnits="userSpaceOnUse">
<stop stop-color="white" stop-opacity="0"/>
<stop offset="1" stop-color="white"/>
</linearGradient>
<linearGradient id="paint1_linear_638_8053" x1="16.6102" y1="16.5716" x2="16.6102" y2="12.2316" gradientUnits="userSpaceOnUse">
<stop stop-color="white" stop-opacity="0"/>
<stop offset="1" stop-color="white"/>
</linearGradient>
<linearGradient id="paint2_linear_638_8053" x1="16.6102" y1="11.6391" x2="16.6102" y2="8.48278" gradientUnits="userSpaceOnUse">
<stop stop-color="white" stop-opacity="0"/>
<stop offset="1" stop-color="white"/>
</linearGradient>
<linearGradient id="paint3_linear_638_8053" x1="16.6102" y1="7.89104" x2="16.6102" y2="3.55106" gradientUnits="userSpaceOnUse">
<stop stop-color="white" stop-opacity="0"/>
<stop offset="1" stop-color="white"/>
</linearGradient>
<linearGradient id="paint4_linear_638_8053" x1="15.2293" y1="3.35405" x2="15.2293" y2="0.197705" gradientUnits="userSpaceOnUse">
<stop stop-color="white" stop-opacity="0"/>
<stop offset="1" stop-color="white"/>
</linearGradient>
<linearGradient id="paint5_linear_638_8053" x1="8.87724" y1="14.2036" x2="8.87724" y2="5.91819" gradientUnits="userSpaceOnUse">
<stop stop-color="white" stop-opacity="0"/>
<stop offset="1" stop-color="white"/>
</linearGradient>
<linearGradient id="paint6_linear_638_8053" x1="5.91818" y1="20.1217" x2="5.91818" y2="0" gradientUnits="userSpaceOnUse">
<stop stop-color="white" stop-opacity="0"/>
<stop offset="1" stop-color="white"/>
</linearGradient>
</defs>
</svg>
