<svg preserveAspectRatio="none" width="100%" height="100%" overflow="visible" style="display: block;" viewBox="0 0 20.1151 20.1151" fill="none" xmlns="http://www.w3.org/2000/svg">
<g id="tick-circle">
<path id="Vector" opacity="0.4" d="M10.0575 18.4388C14.6864 18.4388 18.4388 14.6864 18.4388 10.0575C18.4388 5.42868 14.6864 1.67626 10.0575 1.67626C5.42868 1.67626 1.67626 5.42868 1.67626 10.0575C1.67626 14.6864 5.42868 18.4388 10.0575 18.4388Z" fill="var(--fill-0, #01D9C1)"/>
<path id="Vector_2" d="M8.86739 13.058C8.69977 13.058 8.54052 12.991 8.42318 12.8736L6.05128 10.5017C5.80823 10.2587 5.80823 9.85638 6.05128 9.61333C6.29434 9.37027 6.69664 9.37027 6.9397 9.61333L8.86739 11.541L13.1754 7.23304C13.4184 6.98999 13.8207 6.98999 14.0638 7.23304C14.3068 7.4761 14.3068 7.8784 14.0638 8.12146L9.3116 12.8736C9.19426 12.991 9.03502 13.058 8.86739 13.058Z" fill="var(--fill-0, #01D9C1)"/>
<g id="Vector_3" opacity="0">
</g>
</g>
</svg>
