<svg preserveAspectRatio="none" width="100%" height="100%" overflow="visible" style="display: block;" viewBox="0 0 20.1151 20.1151" fill="none" xmlns="http://www.w3.org/2000/svg">
<g id="danger">
<path id="Vector" opacity="0.4" d="M18.2376 13.343L12.8736 3.68776C12.1528 2.38866 11.1555 1.67626 10.0575 1.67626C8.95957 1.67626 7.9622 2.38866 7.24141 3.68776L1.87739 13.343C1.1985 14.575 1.12307 15.7568 1.66786 16.6871C2.21264 17.6174 3.28544 18.1287 4.6935 18.1287H15.4215C16.8296 18.1287 17.9024 17.6174 18.4472 16.6871C18.992 15.7568 18.9165 14.5667 18.2376 13.343Z" fill="var(--fill-0, #01D9C1)"/>
<path id="Vector_2" d="M10.0575 12.3624C9.7139 12.3624 9.42894 12.0774 9.42894 11.7338V7.54315C9.42894 7.19952 9.7139 6.91455 10.0575 6.91455C10.4012 6.91455 10.6861 7.19952 10.6861 7.54315V11.7338C10.6861 12.0774 10.4012 12.3624 10.0575 12.3624Z" fill="var(--fill-0, #01D9C1)"/>
<path id="Vector_3" d="M10.0575 15.0859C10.0072 15.0859 9.94858 15.0776 9.88991 15.0692C9.83962 15.0608 9.78933 15.044 9.73905 15.0189C9.68876 15.0021 9.63847 14.977 9.58818 14.9435C9.54628 14.9099 9.50437 14.8764 9.46246 14.8429C9.3116 14.6836 9.21941 14.4657 9.21941 14.2478C9.21941 14.0299 9.3116 13.812 9.46246 13.6527C9.50437 13.6192 9.54628 13.5857 9.58818 13.5522C9.63847 13.5186 9.68876 13.4935 9.73905 13.4767C9.78933 13.4516 9.83962 13.4348 9.88991 13.4264C9.99887 13.4013 10.1162 13.4013 10.2168 13.4264C10.2754 13.4348 10.3257 13.4516 10.376 13.4767C10.4263 13.4935 10.4766 13.5186 10.5269 13.5522C10.5688 13.5857 10.6107 13.6192 10.6526 13.6527C10.8035 13.812 10.8957 14.0299 10.8957 14.2478C10.8957 14.4657 10.8035 14.6836 10.6526 14.8429C10.6107 14.8764 10.5688 14.9099 10.5269 14.9435C10.4766 14.977 10.4263 15.0021 10.376 15.0189C10.3257 15.044 10.2754 15.0608 10.2168 15.0692C10.1665 15.0776 10.1078 15.0859 10.0575 15.0859Z" fill="var(--fill-0, #01D9C1)"/>
<g id="Vector_4" opacity="0">
</g>
</g>
</svg>
