<svg preserveAspectRatio="none" width="100%" height="100%" overflow="visible" style="display: block;" viewBox="0 0 13.7271 13.3392" fill="none" xmlns="http://www.w3.org/2000/svg">
<g id="Group 33721">
<path id="Path 4848" d="M4.2872 13.3392C4.12367 13.3397 3.96219 13.3029 3.81499 13.2317C3.66779 13.1605 3.53872 13.0567 3.43757 12.9282L0.239609 8.95272C0.135216 8.82401 0.0620668 8.67286 0.0259012 8.51112C-0.0102645 8.34939 -0.00846304 8.18148 0.0311643 8.02056L1.17344 3.05956C1.20935 2.89927 1.28133 2.74928 1.38391 2.62098C1.48649 2.49269 1.61697 2.38947 1.76543 2.31917L6.38874 0.10965C6.53671 0.0375017 6.69916 5.03659e-06 6.86378 5.03659e-06C7.0284 5.03659e-06 7.19086 0.0375017 7.33883 0.10965L11.9621 2.31166C12.1109 2.3817 12.2418 2.48475 12.3447 2.61298C12.4477 2.74121 12.52 2.89124 12.5562 3.05164L13.6985 8.01264C13.7359 8.1737 13.7366 8.34111 13.7005 8.50247C13.6644 8.66383 13.5925 8.81501 13.49 8.9448L10.2921 12.9194C10.1896 13.0464 10.0602 13.1491 9.91332 13.2201C9.76643 13.2912 9.60563 13.3289 9.44246 13.3305L4.2872 13.3392Z" fill="var(--fill-0, #326DE6)"/>
<path id="Path 4850" d="M11.484 7.67326H11.4752C11.4661 7.67326 11.4569 7.67326 11.4569 7.66408C11.4386 7.66408 11.4202 7.65491 11.4019 7.65491C11.3446 7.64477 11.2866 7.63864 11.2284 7.63657C11.1977 7.63763 11.167 7.63455 11.1372 7.6274H11.128C10.961 7.61681 10.7956 7.58887 10.6344 7.54402C10.6116 7.53505 10.591 7.5215 10.5737 7.50422C10.5564 7.48693 10.5429 7.46628 10.5339 7.44355C10.5339 7.43438 10.5247 7.43438 10.5247 7.42521L10.4059 7.38852C10.4621 6.95864 10.4405 6.52215 10.3421 6.09991C10.2424 5.67428 10.0693 5.26926 9.83062 4.90302L9.92192 4.81964V4.8013C9.92023 4.75162 9.93634 4.70298 9.96736 4.66414C10.0952 4.55714 10.2328 4.46237 10.3784 4.38107C10.4059 4.36273 10.433 4.35356 10.4618 4.33522C10.5156 4.30823 10.5675 4.27774 10.6173 4.24392C10.6265 4.23475 10.6448 4.22557 10.6631 4.20723C10.6723 4.19806 10.6815 4.19806 10.6815 4.18889C10.7421 4.14114 10.7824 4.07219 10.7943 3.99591C10.8061 3.91964 10.7886 3.84172 10.7453 3.77783C10.7207 3.74612 10.689 3.72054 10.6529 3.7031C10.6167 3.68567 10.577 3.67686 10.5368 3.67736C10.4637 3.6794 10.3933 3.70499 10.3359 3.75032L10.3175 3.76866C10.2992 3.77784 10.29 3.79618 10.2717 3.80535C10.2296 3.84568 10.19 3.88842 10.1529 3.93333C10.134 3.95682 10.1126 3.97821 10.0891 3.99712C9.9792 4.11939 9.85664 4.22965 9.72347 4.32604C9.69913 4.34349 9.67004 4.35309 9.6401 4.35356C9.62128 4.35505 9.60239 4.3519 9.58507 4.34439H9.56672L9.45708 4.41734C9.33879 4.29448 9.21351 4.17853 9.08188 4.07008C8.53107 3.63958 7.8682 3.37637 7.17211 3.31175L7.16294 3.19294L7.14459 3.17459C7.1062 3.14557 7.08015 3.10315 7.07164 3.05578C7.06811 2.89078 7.07731 2.72576 7.09915 2.56218V2.55301C7.10085 2.52186 7.10703 2.49111 7.11749 2.46171C7.12667 2.4071 7.13584 2.35207 7.14501 2.28829V2.20491C7.14933 2.14701 7.13548 2.08921 7.10538 2.03957C7.07529 1.98992 7.03045 1.9509 6.97712 1.92796C6.92379 1.90501 6.86463 1.89928 6.80789 1.91156C6.75115 1.92384 6.69965 1.95352 6.66058 1.99646C6.63361 2.02398 6.61236 2.05657 6.59805 2.09235C6.58374 2.12812 6.57665 2.16638 6.57721 2.20491V2.27786C6.57672 2.3368 6.58601 2.3954 6.60472 2.45129C6.61389 2.47881 6.61389 2.50632 6.62306 2.54259V2.55176C6.64947 2.71488 6.65869 2.88032 6.65058 3.04536C6.64211 3.09274 6.61605 3.13518 6.57762 3.16417L6.55928 3.18252L6.55011 3.30133C6.38437 3.31666 6.2196 3.34102 6.05651 3.37428C5.36344 3.52656 4.73252 3.8846 4.24637 4.4015L4.15507 4.33772H4.13798C4.11964 4.33772 4.1013 4.34689 4.08295 4.34689C4.05301 4.34639 4.02393 4.33679 3.99957 4.31938C3.86641 4.21953 3.7439 4.10624 3.63396 3.98128C3.61505 3.95779 3.59367 3.9364 3.57018 3.91749C3.53307 3.87258 3.4934 3.82984 3.45136 3.78951C3.44219 3.78034 3.42385 3.77116 3.40592 3.75282C3.39675 3.74365 3.38758 3.74365 3.38758 3.73448C3.33097 3.6878 3.26001 3.66203 3.18664 3.66152C3.1465 3.66105 3.10679 3.66987 3.07063 3.68731C3.03447 3.70474 3.00283 3.7303 2.97819 3.76199C2.93487 3.82587 2.91736 3.9038 2.9292 3.98007C2.94103 4.05634 2.98133 4.1253 3.04198 4.17305C3.05115 4.17305 3.05115 4.18222 3.06032 4.18222C3.07866 4.19139 3.08784 4.20973 3.10618 4.2189C3.15598 4.25268 3.20792 4.28318 3.26168 4.3102C3.29133 4.32183 3.31936 4.33724 3.34506 4.35606C3.49063 4.43735 3.62825 4.53212 3.75611 4.63913C3.77356 4.65708 3.78674 4.67873 3.79468 4.70248C3.80262 4.72622 3.80511 4.75145 3.80197 4.77629V4.79463L3.89327 4.87801C3.87479 4.90017 3.85937 4.9247 3.84741 4.95096C3.39459 5.66764 3.21246 6.52241 3.3338 7.36142L3.21499 7.39811C3.21499 7.40728 3.20582 7.40728 3.20582 7.41645C3.18487 7.46049 3.14939 7.49597 3.10534 7.51692C2.94446 7.56252 2.7791 7.59048 2.61216 7.6003H2.60299C2.57227 7.59883 2.54151 7.60192 2.51169 7.60947C2.45353 7.61154 2.39558 7.61767 2.33827 7.62782C2.31993 7.62782 2.30158 7.63699 2.28324 7.63699C2.27826 7.63638 2.27321 7.63688 2.26845 7.63847C2.26369 7.64005 2.25934 7.64268 2.25572 7.64616C2.1803 7.66126 2.11356 7.70478 2.06933 7.76771C2.0251 7.83065 2.00676 7.90817 2.0181 7.98426C2.03497 8.04748 2.07333 8.10285 2.12657 8.14089C2.17982 8.17892 2.24464 8.19724 2.30992 8.1927C2.3346 8.19417 2.35933 8.19106 2.38287 8.18353C2.39205 8.18353 2.40122 8.18353 2.40122 8.17436C2.41956 8.17436 2.4379 8.16519 2.45583 8.16519C2.51273 8.14953 2.5679 8.12816 2.6205 8.1014C2.64802 8.09223 2.67512 8.07389 2.70388 8.06472H2.71305C2.86592 8.0016 3.02531 7.9556 3.18831 7.92756H3.20415C3.24765 7.92971 3.2893 7.94578 3.32296 7.97342C3.33213 7.97342 3.33213 7.98259 3.34131 7.98259L3.46929 7.96425C3.68999 8.64247 4.10643 9.24023 4.66618 9.68225C4.7913 9.77892 4.92247 9.86748 5.05889 9.94739L5.00386 10.0662C5.00386 10.0754 5.01303 10.0754 5.01303 10.0845C5.0258 10.1064 5.034 10.1307 5.03715 10.1558C5.0403 10.181 5.03834 10.2065 5.03138 10.2309C4.96604 10.3813 4.88647 10.525 4.79375 10.6603V10.6694C4.77541 10.697 4.75706 10.7153 4.73914 10.7424C4.70245 10.7883 4.67494 10.8337 4.63867 10.8887C4.62747 10.9027 4.61821 10.9181 4.61115 10.9346C4.61021 10.9415 4.60699 10.948 4.60198 10.9529C4.58383 10.9865 4.57251 11.0233 4.56866 11.0612C4.56482 11.0992 4.56852 11.1375 4.57957 11.174C4.59062 11.2105 4.60878 11.2445 4.63302 11.274C4.65726 11.3034 4.68709 11.3278 4.72079 11.3456C4.75468 11.3633 4.79224 11.3727 4.83044 11.3732C4.8873 11.3704 4.94249 11.353 4.99058 11.3225C5.03867 11.292 5.07801 11.2496 5.10475 11.1993C5.10569 11.1923 5.10891 11.1859 5.11392 11.181C5.12101 11.1645 5.13027 11.1491 5.14144 11.1351C5.16255 11.0812 5.18091 11.0262 5.19647 10.9704L5.22398 10.8871C5.26994 10.7273 5.3343 10.5734 5.41575 10.4285C5.44555 10.3888 5.48714 10.3596 5.53456 10.3451C5.54374 10.3451 5.54374 10.3451 5.55291 10.3359L5.61711 10.2171C6.02529 10.374 6.45883 10.4545 6.89613 10.4547C7.16384 10.4565 7.43079 10.4258 7.69114 10.3634C7.85219 10.3274 8.01091 10.2816 8.16639 10.2263L8.221 10.3268C8.23017 10.3268 8.23018 10.3268 8.23935 10.3359C8.2641 10.3401 8.2876 10.3498 8.30815 10.3642C8.32869 10.3787 8.34578 10.3975 8.35816 10.4193C8.43414 10.5668 8.49827 10.7202 8.54993 10.8779V10.8871L8.57745 10.9704C8.59151 11.0266 8.60976 11.0817 8.63206 11.1351C8.64123 11.1535 8.6504 11.1626 8.65957 11.181C8.66051 11.1879 8.66374 11.1944 8.66874 11.1993C8.6939 11.2507 8.73281 11.2942 8.78115 11.3249C8.8295 11.3556 8.88539 11.3723 8.94264 11.3732C8.98084 11.3727 9.0184 11.3633 9.05228 11.3456C9.0851 11.3289 9.11417 11.3057 9.13775 11.2774C9.16132 11.2491 9.17891 11.2163 9.18944 11.181C9.21076 11.1051 9.20426 11.024 9.1711 10.9525C9.1711 10.9433 9.16193 10.9433 9.16193 10.9342C9.15483 10.9177 9.14558 10.9023 9.13441 10.8883C9.10625 10.8361 9.07257 10.787 9.03394 10.742C9.0156 10.7145 8.99725 10.6965 8.97933 10.669V10.6599C8.88317 10.5268 8.80339 10.3826 8.7417 10.2305C8.73035 10.1818 8.73354 10.131 8.75087 10.0841C8.75087 10.075 8.76004 10.075 8.76004 10.0658L8.71419 9.95615C9.46959 9.50432 10.0348 8.79304 10.3042 7.95507L10.4138 7.97342C10.423 7.97342 10.423 7.96425 10.4322 7.96425C10.4668 7.93835 10.5079 7.92262 10.551 7.9188H10.5693C10.7323 7.94685 10.8917 7.99285 11.0446 8.05596H11.0538C11.0813 8.06513 11.1084 8.08348 11.1372 8.09265C11.1897 8.11952 11.2449 8.14102 11.3018 8.15685C11.3202 8.15685 11.3385 8.16602 11.3569 8.16602C11.3618 8.16538 11.3669 8.16587 11.3717 8.16746C11.3764 8.16905 11.3808 8.17169 11.3844 8.17519C11.4079 8.1827 11.4326 8.18581 11.4573 8.18436C11.5216 8.18449 11.5844 8.16445 11.6367 8.12706C11.6891 8.08967 11.7284 8.03681 11.7491 7.97592C11.741 7.90462 11.7112 7.83751 11.6638 7.78363C11.6164 7.72975 11.5537 7.69167 11.484 7.67451V7.67326ZM7.2534 7.22552L6.85152 7.41729L6.44964 7.22552L6.34917 6.79612L6.62306 6.44885H7.0708L7.34512 6.79612L7.2534 7.22552ZM9.63843 6.27542C9.70927 6.57764 9.73081 6.88933 9.70221 7.19842L8.30438 6.79654C8.24374 6.77914 8.19203 6.73925 8.1598 6.68502C8.12757 6.63078 8.11725 6.56629 8.13095 6.50471C8.14 6.46691 8.159 6.43222 8.18598 6.40424L9.29074 5.40704C9.4522 5.67592 9.56945 5.96896 9.63801 6.27501L9.63843 6.27542ZM8.85259 4.858L7.6557 5.70762C7.60496 5.73935 7.5443 5.75128 7.48532 5.74113C7.42634 5.73098 7.37316 5.69946 7.33595 5.65259C7.31171 5.62396 7.29584 5.58919 7.29009 5.55212L7.20671 4.06257C7.82973 4.13467 8.40991 4.4158 8.85259 4.86008V4.858ZM6.20284 4.1076C6.30331 4.08925 6.39461 4.07091 6.49466 4.05298L6.41128 5.51502C6.4081 5.57859 6.38081 5.63856 6.33495 5.68272C6.2891 5.72687 6.22814 5.75187 6.16448 5.75264C6.12615 5.75331 6.08832 5.74382 6.05484 5.72513L4.84128 4.86008C5.21478 4.48588 5.687 4.22562 6.20284 4.10968V4.1076ZM4.40271 5.40496L5.48996 6.37339C5.53762 6.4151 5.56715 6.47374 5.57229 6.53686C5.57742 6.59999 5.55776 6.66263 5.51747 6.71149C5.4913 6.74863 5.4522 6.77465 5.40783 6.78445L3.9904 7.1955C3.93358 6.57063 4.07805 5.94396 4.40271 5.40704V5.40496ZM4.15591 7.88128L5.60877 7.63449C5.66727 7.63077 5.72519 7.64804 5.7721 7.68319C5.81902 7.71834 5.85186 7.76906 5.86474 7.82625C5.87571 7.87491 5.87252 7.92568 5.85557 7.97258L5.29819 9.3158C4.77132 8.97484 4.37022 8.47113 4.15591 7.88128ZM7.49103 9.69976C7.28111 9.74707 7.0667 9.77153 6.85152 9.77271C6.53822 9.77094 6.22701 9.7216 5.92853 9.62639L6.65058 8.32027C6.68482 8.27818 6.73233 8.24895 6.78534 8.23737C6.83835 8.22578 6.89372 8.23252 6.9424 8.25649C6.98506 8.28262 7.02229 8.31673 7.05204 8.35695L7.75575 9.62722C7.67238 9.65473 7.58233 9.67308 7.49061 9.70017L7.49103 9.69976ZM9.27282 8.4295C9.04863 8.78485 8.74992 9.08726 8.39735 9.3158L7.82162 7.9359C7.80714 7.88119 7.81196 7.82316 7.83527 7.7716C7.85859 7.72004 7.89897 7.67809 7.94961 7.65283C7.98964 7.63408 8.0334 7.62467 8.07759 7.62531L9.53963 7.87211C9.48298 8.07235 9.39276 8.26153 9.27282 8.43158V8.4295Z" fill="var(--fill-0, white)"/>
</g>
</svg>
