<svg preserveAspectRatio="none" width="100%" height="100%" overflow="visible" style="display: block;" viewBox="0 0 12.3935 13.4223" fill="none" xmlns="http://www.w3.org/2000/svg">
<g id="Group 6662">
<path id="Path 3413" d="M5.73271 2.77875C5.31025 2.05739 5.07244 1.24287 5.04039 0.407515C3.64855 0.708607 2.2658 1.2483 2.34572 1.64597C2.35594 1.69596 2.41881 1.75618 2.52372 1.8145L2.36011 2.10726C2.27718 2.07097 2.20339 2.01665 2.1441 1.94825C2.08481 1.87986 2.04151 1.7991 2.01736 1.71187C1.92722 1.26193 2.43661 0.854798 3.5747 0.467355C4.09729 0.294045 4.62956 0.151399 5.16878 0.0401455L5.36913 0V0.203C5.38165 1.04075 5.60295 1.86214 6.01297 2.5928L5.73271 2.77875Z" fill="var(--fill-0, #CFD8DC)"/>
<path id="Path 3414" d="M6.29211 13.4221H6.20803C3.45957 13.4221 0.400556 12.5586 0.0388676 11.1156C-0.181554 10.2332 0.539551 9.25986 2.12189 8.29713L2.29649 8.58383C0.872077 9.44696 0.186194 10.3169 0.364956 11.0327C0.678545 12.2867 3.57736 13.0688 6.12168 13.0862C6.73489 12.1022 7.13994 11.0029 7.31184 9.85629C7.48374 8.70965 7.41884 7.53996 7.12115 6.41938L7.44572 6.33492C7.76116 7.51731 7.82613 8.75255 7.63647 9.9615C7.44682 11.1705 7.00672 12.3265 6.34437 13.3555L6.29211 13.4221Z" fill="var(--fill-0, #CFD8DC)"/>
<path id="Path 3415" d="M1.31985 12.1829C1.22422 12.1857 1.12856 12.1778 1.03467 12.1594C1.00579 12.1523 0.979326 12.1376 0.958 12.1168C0.936674 12.0961 0.921251 12.07 0.913311 12.0414C0.905371 12.0127 0.9052 11.9824 0.912816 11.9536C0.920432 11.9249 0.93556 11.8987 0.956651 11.8777C0.980889 11.8534 3.37144 9.45908 3.69412 7.52225L4.02476 7.57716C3.74715 9.24358 2.10724 11.1414 1.4562 11.8405C2.10686 11.8027 3.74942 11.4997 6.90312 9.73366C4.44136 9.464 4.05278 7.49384 4.04899 7.47263L4.37887 7.41204C4.39478 7.4946 4.79017 9.42878 7.4803 9.42878H7.48295C7.51995 9.42869 7.55593 9.44083 7.58531 9.4633C7.6147 9.48578 7.63583 9.51733 7.64542 9.55306C7.65501 9.58879 7.65252 9.62669 7.63835 9.66085C7.62417 9.69502 7.5991 9.72355 7.56703 9.74199C3.79714 11.9265 1.96938 12.1825 1.31985 12.1829Z" fill="var(--fill-0, #CFD8DC)"/>
<path id="Path 3416" d="M2.85991 12.9858C2.8247 12.9855 2.79048 12.9741 2.76211 12.9532C2.73374 12.9323 2.71266 12.9031 2.70185 12.8696C2.69104 12.836 2.69105 12.8 2.70189 12.7665C2.71272 12.733 2.73382 12.7037 2.7622 12.6828C3.25145 12.2811 3.67148 11.8018 4.00558 11.2641C3.75236 11.1524 3.50635 11.025 3.26894 10.8827C3.00934 10.732 2.77591 10.5401 2.57776 10.3146C1.8124 10.5334 1.01546 10.6206 0.220912 10.5726L0.248938 10.2385C0.962877 10.2827 1.67925 10.2102 2.36984 10.0238C2.21743 9.74784 2.13435 9.439 2.12775 9.12384C2.12115 8.80868 2.19123 8.49664 2.33196 8.21457L2.6251 8.3778C2.50101 8.62106 2.4434 8.89278 2.45809 9.16546C2.47279 9.43814 2.55928 9.7021 2.7088 9.9306C3.51617 9.69138 4.3 9.37889 5.0505 8.99703C5.25703 8.31049 5.39468 7.6051 5.46142 6.89128C5.46401 6.86469 5.47292 6.83909 5.4874 6.81663C5.50188 6.79417 5.52151 6.7755 5.54467 6.76216C5.56782 6.74882 5.59383 6.74121 5.62052 6.73995C5.64722 6.7387 5.67382 6.74383 5.69813 6.75494C5.70873 6.75986 6.79342 7.25524 7.57853 7.5783C7.60656 7.58981 7.63095 7.6087 7.64911 7.63296C7.66727 7.65722 7.67852 7.68595 7.68167 7.71609C7.68482 7.74622 7.67974 7.77665 7.66698 7.80414C7.65422 7.83163 7.63426 7.85515 7.60921 7.8722C6.88106 8.37167 6.12208 8.82465 5.33682 9.22844C5.13318 9.88272 4.85648 10.512 4.51194 11.1043C5.25976 11.3848 6.04763 11.5438 6.84569 11.5754C6.88278 11.5757 6.91876 11.5881 6.94803 11.6109C6.97729 11.6337 6.9982 11.6656 7.00749 11.7015C7.01678 11.7374 7.01394 11.7754 6.9994 11.8095C6.98486 11.8436 6.95945 11.872 6.92711 11.8902C5.40385 12.7362 2.97921 12.9745 2.87658 12.9843L2.85991 12.9858ZM4.33129 11.3978C4.05933 11.8256 3.74187 12.2227 3.38446 12.5821C4.34912 12.4511 5.29565 12.2103 6.20563 11.8644C5.56423 11.7855 4.93482 11.6288 4.33129 11.3978ZM2.94172 10.2112C3.09225 10.3585 3.26012 10.487 3.44165 10.5938C3.68122 10.7372 3.93009 10.8645 4.18661 10.9748C4.47539 10.4883 4.71638 9.97498 4.9062 9.44204C4.27169 9.74768 3.61499 10.0046 2.94172 10.2112ZM5.77198 7.15753C5.70953 7.7071 5.60712 8.25139 5.46559 8.78608C6.0227 8.48915 6.5908 8.14981 7.16382 7.7707C6.6442 7.54952 6.07269 7.2935 5.7716 7.15753H5.77198Z" fill="var(--fill-0, #CFD8DC)"/>
<path id="Path 3417" d="M4.00226 2.55208C3.96225 2.55188 3.92361 2.53753 3.89318 2.51156C3.4418 2.07453 3.03809 1.59084 2.68882 1.06859C2.66796 1.03743 2.65815 1.00019 2.66093 0.962808C2.66372 0.925422 2.67894 0.890047 2.70418 0.862325C2.72942 0.834604 2.76321 0.816133 2.80017 0.80986C2.83713 0.803587 2.87513 0.809873 2.9081 0.827716C3.70334 1.04312 4.51245 1.20357 5.32971 1.30795C5.35945 1.31283 5.38732 1.32564 5.41039 1.34501C5.43347 1.36439 5.4509 1.38962 5.46086 1.41806C5.47082 1.4465 5.47294 1.4771 5.46698 1.50664C5.46103 1.53618 5.44724 1.56357 5.42704 1.58594C5.04575 1.99921 4.57961 2.32517 4.06058 2.54148C4.04187 2.54827 4.02216 2.55185 4.00226 2.55208ZM3.23835 1.25871C3.47726 1.58989 3.74329 1.90064 4.03369 2.18774C4.36857 2.03298 4.67881 1.82968 4.95439 1.58442C4.08823 1.43672 3.5599 1.33143 3.23835 1.25871Z" fill="var(--fill-0, #CFD8DC)"/>
<path id="Path 3418" d="M5.31599 7.18199C5.29249 7.18202 5.26924 7.1771 5.24777 7.16755C5.2263 7.158 5.20708 7.14403 5.19136 7.12656C5.17564 7.10909 5.16377 7.08851 5.15653 7.06615C5.1493 7.04379 5.14685 7.02016 5.14935 6.99679C5.24744 6.07458 3.83212 5.70456 3.81773 5.70115C3.78917 5.69363 3.76311 5.6787 3.74217 5.65788C3.72124 5.63706 3.70616 5.61108 3.69848 5.58257C3.69079 5.55406 3.69077 5.52403 3.69841 5.49551C3.70605 5.46699 3.72108 5.44099 3.74198 5.42013C4.85499 4.34412 6.13942 3.46096 7.54255 2.80688C7.57087 2.79439 7.60209 2.78998 7.63275 2.79416C7.66342 2.79834 7.69233 2.81094 7.71626 2.83056C7.7402 2.85018 7.75823 2.87605 7.76834 2.9053C7.77846 2.93455 7.78027 2.96603 7.77358 2.99625C7.37553 4.92361 5.5224 7.03732 5.44362 7.12442C5.42761 7.14247 5.40795 7.15693 5.38596 7.16685C5.36396 7.17677 5.34012 7.18193 5.31599 7.18199ZM4.17979 5.46596C4.57708 5.61518 5.27281 5.96096 5.44892 6.59193C5.93521 5.98596 6.97294 4.58806 7.36038 3.25909C6.20333 3.84429 5.13285 4.58683 4.17941 5.46558L4.17979 5.46596Z" fill="var(--fill-0, #B71C1C)"/>
<path id="Path 3419" d="M2.37582 8.50991L2.21486 8.21374C2.96352 7.77388 3.6241 7.19897 4.16306 6.51816C3.65859 6.86357 3.36772 7.10027 3.36052 7.10785L3.14616 6.84955C3.64129 6.45812 4.15986 6.09727 4.69896 5.76903C4.95392 5.37399 5.14667 4.94212 5.27047 4.48854C5.28827 4.41734 5.3038 4.34879 5.31592 4.28213C4.78126 4.08869 4.22933 3.94677 3.66768 3.85833C3.63732 3.85406 3.60871 3.84155 3.58496 3.82217C3.56122 3.80278 3.54323 3.77726 3.53297 3.74837C3.5227 3.71949 3.52054 3.68834 3.52673 3.65832C3.53292 3.62829 3.54722 3.60054 3.56807 3.57807C4.01973 3.10517 4.54821 2.71218 5.13109 2.41574C5.1634 2.40046 5.19974 2.39589 5.23483 2.4027C5.26991 2.40951 5.3019 2.42735 5.32614 2.45361C5.494 2.68313 5.61308 2.94457 5.67607 3.22185C5.73905 3.49913 5.7446 3.78637 5.69237 4.06587C6.09564 4.22178 6.48712 4.40658 6.86379 4.61882C7.85518 4.16648 8.89371 3.82556 9.9603 3.60231C9.98978 3.59671 10.0202 3.59898 10.0485 3.60889C10.0769 3.6188 10.1021 3.63599 10.1216 3.65874C10.141 3.68182 10.1538 3.70966 10.1587 3.73937C10.1636 3.76908 10.1605 3.79956 10.1497 3.82765C9.73365 4.70208 9.1741 5.50064 8.49423 6.19018C8.47744 6.2069 8.45736 6.21995 8.43526 6.22849C8.41315 6.23703 8.38951 6.24088 8.36584 6.23979C8.34215 6.23844 8.31902 6.2321 8.29794 6.2212C8.27686 6.21031 8.25832 6.19509 8.24351 6.17655C7.85093 5.70257 7.37705 5.30231 6.8441 4.99452C6.18905 5.29788 5.55233 5.63933 4.93718 6.0171C4.28876 7.03583 3.41176 7.88936 2.37582 8.50991ZM7.21147 4.83129C7.64526 5.10495 8.03866 5.43793 8.38023 5.82054C8.89614 5.2729 9.34053 4.66206 9.70276 4.00263C8.84901 4.20303 8.01516 4.48038 7.21147 4.83129ZM5.63708 4.4037C5.62597 4.45849 5.61335 4.51442 5.59921 4.57148C5.52165 4.8688 5.41232 5.1569 5.27312 5.43082C5.64087 5.22063 6.048 5.00399 6.48695 4.79418C6.211 4.6486 5.92729 4.51825 5.63708 4.4037ZM4.043 3.58186C4.49171 3.67218 4.93351 3.79392 5.36515 3.9462C5.4169 3.54472 5.34097 3.13713 5.14814 2.78122C4.74737 3.00027 4.37602 3.2693 4.043 3.58186Z" fill="var(--fill-0, #B71C1C)"/>
<path id="Path 3420" d="M4.04401 5.2029C4.04401 6.67238 2.81919 7.84001 1.93712 8.69215C1.73776 8.79903 1.51568 8.85657 1.28949 8.85993C1.41372 8.7323 1.5546 8.59823 1.7061 8.45393C2.54499 7.64193 3.70921 6.53149 3.70921 5.2029C3.74084 4.69755 3.65491 4.19174 3.45816 3.72518C3.26142 3.25863 2.95922 2.84402 2.57529 2.51391C2.35894 2.31448 2.18147 2.07666 2.05188 1.8125L2.15603 1.76894C2.26965 1.81931 2.40107 1.87612 2.50143 1.92043C2.59456 2.04812 2.69901 2.16714 2.81351 2.27606C3.22767 2.63823 3.55377 3.0901 3.767 3.59728C3.98023 4.10446 4.07497 4.65359 4.04401 5.2029Z" fill="var(--fill-0, #B71C1C)"/>
<path id="Path 3421" d="M12.3935 5.63604C12.3935 5.63604 12.1905 5.66483 12.1333 5.67165C9.49775 5.97583 6.90946 6.60239 4.42654 7.53728C3.78245 7.79327 3.15692 8.0937 2.55447 8.43639C2.55106 8.4398 2.54765 8.43979 2.54121 8.4432C2.1924 8.64469 1.34328 9.06054 0.655505 9.42791C1.66217 8.35761 3.5475 7.53235 4.29928 7.23126C6.71722 6.31988 9.23425 5.69698 11.7982 5.37548C11.0366 4.53051 10.0742 3.8912 9.0001 3.51666C7.80132 3.14226 6.5685 2.88715 5.31959 2.75503C3.28769 2.46076 2.12839 2.26609 2.0178 1.71239C1.99545 1.60101 2.01078 1.48536 2.06136 1.38365C2.15878 1.53464 2.28535 1.66469 2.43365 1.76617C2.46608 1.78811 2.49971 1.80821 2.53439 1.82638L2.5378 1.82979C3.01425 2.08127 4.29928 2.26609 5.36958 2.42023C6.64178 2.55679 7.89757 2.81746 9.11902 3.19853C11.424 4.08779 12.2193 5.35919 12.2526 5.41297C12.286 5.46675 12.3935 5.63604 12.3935 5.63604Z" fill="var(--fill-0, #B71C1C)"/>
</g>
</svg>
