<svg width="10" height="10" viewBox="0 0 10 10" fill="none" xmlns="http://www.w3.org/2000/svg">
<path d="M4.46153 0C6.92161 0 8.92305 1.9986 8.92305 4.45521C8.92305 5.51786 8.54835 6.49466 7.92419 7.26124L9.79199 9.12638L9.1393 9.77816L7.2715 7.91299C6.50388 8.53625 5.5257 8.91044 4.46155 8.91044C2.00145 8.91044 2.28882e-05 6.91182 2.28882e-05 4.45521C2.28882e-05 1.9986 2.00145 0 4.46153 0ZM4.46153 7.98866C6.41262 7.98866 7.99997 6.40355 7.99997 4.45521C7.99997 2.50688 6.41263 0.921763 4.46153 0.921763C2.51042 0.921763 0.923088 2.50688 0.923088 4.45521C0.923088 6.40355 2.51044 7.98866 4.46153 7.98866Z" fill="#727272"/>
</svg>
